<?xml version="1.0" encoding="utf-8"?>
<!-- Generator: Adobe Illustrator 19.2.1, SVG Export Plug-In . SVG Version: 6.00 Build 0)  -->
<svg version="1.1" id="Layer_1" xmlns="http://www.w3.org/2000/svg" xmlns:xlink="http://www.w3.org/1999/xlink" x="0px" y="0px"
	 viewBox="0 0 720 170" style="enable-background:new 0 0 720 170;" xml:space="preserve">
<style type="text/css">
	.st0{fill:#FF9327;stroke:#000000;stroke-miterlimit:10;}
	.st1{fill:none;stroke:#000000;stroke-linejoin:round;stroke-dasharray:1,3;}
	.st2{fill:#FF9327;}
	.st3{fill:none;stroke:#000000;stroke-linejoin:round;}
	.st4{fill:#EFEEEE;}
	.st5{stroke:#000000;stroke-miterlimit:10;}
	.st6{fill:none;stroke:#000000;stroke-linejoin:round;stroke-dasharray:4,3;}
	.st7{fill-opacity:0;}
</style>
<path class="st0" d="M10,47.2h91.6v65H10V47.2z"/>
<path class="st1" d="M10,47.2h91.6v65H10V47.2z"/>
<path d="M37.9,84.2v-9.4h3.6c0.5,0,1,0,1.4,0.1c0.4,0.1,0.8,0.2,1.2,0.4c0.3,0.2,0.6,0.5,0.8,0.9c0.2,0.4,0.3,0.8,0.3,1.3
	c0,0.7-0.3,1.5-0.8,2c-0.8,0.6-1.8,1-2.8,0.8h-2.4v3.8L37.9,84.2L37.9,84.2z M39.1,79.3h2.5c0.6,0.1,1.2-0.1,1.7-0.4
	c0.4-0.3,0.5-0.8,0.5-1.3c0-0.4-0.1-0.7-0.3-1c-0.2-0.3-0.5-0.4-0.8-0.5c-0.4-0.1-0.8-0.1-1.2-0.1h-2.4V79.3L39.1,79.3z M50.8,83.4
	c-0.4,0.3-0.8,0.6-1.2,0.8c-0.4,0.1-0.8,0.2-1.3,0.2c-0.6,0-1.2-0.2-1.7-0.6c-0.4-0.4-0.6-0.9-0.6-1.4c0-0.6,0.3-1.2,0.8-1.6
	c0.3-0.2,0.5-0.3,0.8-0.4c0.3-0.1,0.7-0.1,1-0.2c0.7-0.1,1.4-0.2,2.1-0.4c0-0.2,0-0.3,0-0.3c0-0.4-0.1-0.7-0.3-1
	c-0.4-0.3-0.8-0.4-1.3-0.4c-0.4,0-0.9,0.1-1.2,0.3c-0.3,0.3-0.5,0.6-0.6,1l-1.1-0.1c0.1-0.4,0.2-0.8,0.5-1.2c0.3-0.3,0.6-0.6,1-0.7
	c0.5-0.2,1-0.3,1.5-0.2c0.5,0,1,0.1,1.4,0.2c0.3,0.1,0.6,0.3,0.8,0.5c0.2,0.2,0.3,0.5,0.4,0.8c0,0.4,0.1,0.7,0,1.1v1.5
	c0,0.7,0,1.3,0.1,2c0.1,0.3,0.2,0.6,0.3,0.8H51C50.9,83.9,50.8,83.6,50.8,83.4L50.8,83.4z M50.7,80.8c-0.6,0.2-1.3,0.4-1.9,0.4
	c-0.3,0-0.7,0.1-1,0.2c-0.2,0.1-0.3,0.2-0.5,0.4c-0.1,0.2-0.2,0.4-0.2,0.6c0,0.3,0.1,0.6,0.3,0.8c0.3,0.2,0.6,0.3,1,0.3
	c0.4,0,0.8-0.1,1.2-0.3c0.3-0.2,0.6-0.5,0.8-0.8c0.1-0.4,0.2-0.8,0.2-1.1L50.7,80.8L50.7,80.8z M53.5,84.2v-6.8h1v1
	c0.2-0.4,0.4-0.7,0.7-1c0.2-0.2,0.5-0.2,0.7-0.2c0.4,0,0.8,0.1,1.2,0.4l-0.4,1.1c-0.3-0.2-0.5-0.2-0.8-0.2c-0.2,0-0.5,0.1-0.7,0.2
	c-0.2,0.2-0.4,0.4-0.4,0.6c-0.1,0.4-0.2,0.9-0.2,1.4v3.6L53.5,84.2L53.5,84.2z M57.3,82.2l1.1-0.2c0.1,0.4,0.3,0.7,0.6,1
	c0.4,0.3,0.8,0.4,1.2,0.4c0.4,0,0.8-0.1,1.2-0.3c0.2-0.2,0.4-0.5,0.4-0.8c0-0.3-0.1-0.5-0.3-0.6c-0.4-0.2-0.8-0.3-1.2-0.4
	c-0.6-0.1-1.2-0.3-1.8-0.6c-0.3-0.1-0.6-0.4-0.7-0.7c-0.5-0.8-0.2-1.9,0.5-2.4c0.2-0.2,0.5-0.3,0.7-0.3c0.3-0.1,0.7-0.1,1-0.1
	c0.5,0,1,0.1,1.4,0.2c0.4,0.1,0.7,0.3,0.9,0.6c0.2,0.3,0.4,0.7,0.4,1.1l-1.1,0.1c0-0.3-0.2-0.6-0.5-0.8c-0.3-0.2-0.6-0.3-1-0.3
	c-0.4,0-0.8,0.1-1.1,0.3c-0.2,0.1-0.3,0.4-0.3,0.6c0,0.1,0,0.3,0.1,0.4c0.1,0.1,0.3,0.3,0.5,0.3l1,0.3c0.6,0.1,1.2,0.3,1.7,0.5
	c0.3,0.1,0.6,0.3,0.8,0.6c0.2,0.3,0.3,0.6,0.3,1c0,0.4-0.1,0.8-0.3,1.1c-0.2,0.4-0.6,0.6-1,0.8c-0.5,0.2-0.9,0.3-1.4,0.3
	c-0.7,0-1.4-0.2-2-0.6C57.7,83.4,57.4,82.8,57.3,82.2L57.3,82.2z M68.9,82l1.2,0.1c-0.1,0.6-0.5,1.2-1,1.6c-0.6,0.4-1.3,0.6-2,0.6
	c-0.9,0-1.8-0.3-2.4-0.9c-0.6-0.7-0.9-1.7-0.9-2.6c-0.1-1,0.3-1.9,0.9-2.7c0.6-0.7,1.4-1,2.3-1c0.8,0,1.7,0.3,2.2,0.9
	c0.6,0.7,0.9,1.7,0.9,2.6V81H65c0,0.6,0.2,1.2,0.6,1.7c0.4,0.4,0.9,0.6,1.4,0.6c0.4,0,0.8-0.1,1.1-0.3C68.5,82.8,68.7,82.4,68.9,82z
	 M65.1,80.1h3.8c0-0.5-0.2-0.9-0.4-1.3c-0.3-0.4-0.9-0.7-1.4-0.7c-0.5,0-1,0.2-1.4,0.5C65.3,79.1,65.1,79.6,65.1,80.1L65.1,80.1z
	 M71.3,84.2v-6.8h1v1c0.2-0.4,0.4-0.7,0.7-1c0.2-0.2,0.5-0.2,0.7-0.2c0.4,0,0.8,0.1,1.2,0.4l-0.4,1.1c-0.3-0.2-0.5-0.2-0.8-0.2
	c-0.2,0-0.5,0.1-0.7,0.2c-0.2,0.2-0.4,0.4-0.4,0.6c-0.1,0.4-0.2,0.9-0.2,1.4v3.6L71.3,84.2L71.3,84.2z"/>
<path class="st2" d="M135.7,8.6h91.6v65h-91.6V8.6z"/>
<path class="st3" d="M135.7,8.6h91.6v65h-91.6V8.6z"/>
<path d="M167.5,45.5v-9.4h3.3c0.6,0,1.1,0,1.7,0.1c0.5,0.1,1,0.3,1.4,0.7c0.5,0.4,0.9,1,1.1,1.6c0.3,0.7,0.4,1.5,0.4,2.2
	c0,0.6-0.1,1.3-0.2,1.9c-0.1,0.5-0.4,1-0.6,1.4c-0.2,0.3-0.5,0.6-0.9,0.9c-0.3,0.2-0.7,0.4-1.1,0.5c-0.5,0.1-1,0.2-1.5,0.1
	L167.5,45.5L167.5,45.5z M168.8,44.4h2c0.5,0,1,0,1.5-0.2c0.3-0.1,0.6-0.3,0.9-0.5c0.3-0.3,0.6-0.8,0.7-1.2c0.2-0.6,0.3-1.2,0.2-1.8
	c0-0.8-0.1-1.6-0.5-2.3c-0.3-0.5-0.7-0.9-1.2-1.1c-0.5-0.2-1.1-0.2-1.6-0.2h-2L168.8,44.4L168.8,44.4z M176.4,40.9
	c-0.1-1.3,0.4-2.7,1.3-3.7c0.8-0.9,2-1.4,3.3-1.3c0.8,0,1.6,0.2,2.4,0.6c0.7,0.4,1.2,1,1.6,1.7c0.8,1.6,0.8,3.5,0,5.1
	c-0.4,0.7-0.9,1.3-1.6,1.7c-0.7,0.4-1.5,0.6-2.3,0.6c-0.8,0-1.7-0.2-2.4-0.6c-0.7-0.4-1.2-1-1.6-1.8
	C176.6,42.5,176.4,41.7,176.4,40.9z M177.7,40.9c-0.1,1,0.3,1.9,0.9,2.7c0.6,0.7,1.4,1,2.3,1c0.9,0,1.7-0.3,2.3-1
	c0.7-0.8,1-1.8,0.9-2.8c0-0.7-0.1-1.4-0.4-2c-0.2-0.5-0.6-1-1.1-1.3c-0.5-0.3-1.1-0.5-1.6-0.5c-0.9,0-1.7,0.3-2.3,0.9
	C178,38.8,177.6,39.8,177.7,40.9L177.7,40.9z M186.8,45.5v-9.4h1.9l2.2,6.7l0.4,1.4c0.1-0.3,0.3-0.8,0.5-1.5l2.3-6.6h1.7v9.4h-1.2
	v-7.9l-2.7,7.9h-1.1l-2.7-8v8L186.8,45.5L186.8,45.5z"/>
<path class="st0" d="M261.4,47.2h91.6v65h-91.6V47.2z"/>
<path class="st1" d="M261.4,47.2h91.6v65h-91.6V47.2z"/>
<path d="M289.6,80.9l1.2,0.3c-0.2,0.9-0.7,1.8-1.4,2.4c-0.7,0.6-1.6,0.8-2.5,0.8c-0.9,0-1.7-0.2-2.5-0.6c-0.6-0.4-1.1-1-1.4-1.8
	c-0.3-0.8-0.5-1.7-0.5-2.5c0-0.9,0.2-1.8,0.6-2.6c0.3-0.7,0.9-1.3,1.6-1.7c0.7-0.4,1.5-0.6,2.3-0.6c0.9,0,1.7,0.2,2.4,0.7
	c0.7,0.5,1.1,1.2,1.4,2l-1.2,0.3c-0.2-0.6-0.5-1.1-1-1.5c-0.5-0.3-1-0.5-1.6-0.5c-0.6,0-1.3,0.2-1.8,0.5c-0.5,0.4-0.8,0.8-1,1.4
	c-0.2,0.6-0.3,1.2-0.3,1.8c0,0.7,0.1,1.4,0.3,2.1c0.2,0.6,0.6,1,1.1,1.4c0.5,0.3,1,0.4,1.6,0.4c0.6,0,1.3-0.2,1.8-0.6
	C289.1,82.2,289.5,81.6,289.6,80.9z M296.5,83.4c-0.4,0.3-0.8,0.6-1.2,0.8c-0.4,0.1-0.8,0.2-1.3,0.2c-0.6,0-1.2-0.2-1.7-0.6
	c-0.4-0.4-0.6-0.9-0.6-1.4c0-0.6,0.3-1.2,0.8-1.6c0.3-0.2,0.5-0.3,0.8-0.4c0.3-0.1,0.7-0.1,1-0.2c0.7-0.1,1.4-0.2,2.1-0.4
	c0-0.2,0-0.3,0-0.3c0-0.4-0.1-0.7-0.3-1c-0.4-0.3-0.8-0.4-1.3-0.4c-0.4,0-0.9,0.1-1.2,0.3c-0.3,0.3-0.5,0.6-0.6,1l-1.1-0.1
	c0.1-0.4,0.2-0.8,0.5-1.2c0.3-0.3,0.6-0.6,1-0.7c0.5-0.2,1-0.3,1.5-0.2c0.5,0,1,0.1,1.4,0.2c0.3,0.1,0.6,0.3,0.8,0.5
	c0.2,0.2,0.3,0.5,0.4,0.8c0,0.4,0.1,0.7,0,1.1v1.5c0,0.7,0,1.3,0.1,2c0.1,0.3,0.2,0.6,0.3,0.8h-1.2
	C296.5,83.9,296.5,83.6,296.5,83.4L296.5,83.4z M296.4,80.8c-0.6,0.2-1.3,0.4-1.9,0.4c-0.3,0-0.7,0.1-1,0.2
	c-0.2,0.1-0.3,0.2-0.5,0.4c-0.1,0.2-0.2,0.4-0.1,0.6c0,0.3,0.1,0.6,0.3,0.8c0.3,0.2,0.6,0.3,1,0.3c0.4,0,0.8-0.1,1.2-0.3
	c0.3-0.2,0.6-0.5,0.8-0.8c0.1-0.4,0.2-0.8,0.2-1.1L296.4,80.8L296.4,80.8z M298.7,82.2l1.1-0.2c0,0.4,0.2,0.8,0.5,1.1
	c0.4,0.3,0.8,0.4,1.2,0.4c0.4,0,0.8-0.1,1.2-0.3c0.2-0.2,0.4-0.5,0.4-0.8c0-0.3-0.1-0.5-0.3-0.6c-0.4-0.2-0.8-0.3-1.2-0.4
	c-0.6-0.1-1.2-0.3-1.8-0.6c-0.3-0.1-0.6-0.4-0.7-0.7c-0.5-0.8-0.2-1.9,0.5-2.4c0.2-0.2,0.5-0.3,0.7-0.3c0.3-0.1,0.7-0.1,1-0.1
	c0.5,0,1,0.1,1.4,0.2c0.4,0.1,0.7,0.3,0.9,0.6c0.2,0.3,0.4,0.7,0.4,1.1l-1.1,0.1c0-0.3-0.2-0.6-0.5-0.8c-0.3-0.2-0.6-0.3-1-0.3
	c-0.4,0-0.8,0.1-1.1,0.3c-0.2,0.1-0.3,0.4-0.3,0.6c0,0.1,0,0.3,0.1,0.4c0.1,0.1,0.3,0.3,0.5,0.3l1,0.3c0.6,0.1,1.2,0.3,1.7,0.5
	c0.3,0.1,0.6,0.3,0.8,0.6c0.2,0.3,0.3,0.6,0.3,1c0,0.4-0.1,0.8-0.3,1.1c-0.2,0.4-0.6,0.6-1,0.8c-0.5,0.2-0.9,0.3-1.4,0.3
	c-0.7,0-1.4-0.2-2-0.6C299.1,83.4,298.8,82.8,298.7,82.2L298.7,82.2z M310.1,81.7l1.1,0.1c-0.1,0.7-0.4,1.4-1,1.9
	c-0.5,0.4-1.2,0.7-1.9,0.7c-0.8,0-1.7-0.3-2.2-0.9c-0.6-0.7-0.9-1.7-0.9-2.6c0-0.7,0.1-1.3,0.4-1.9c0.2-0.5,0.6-1,1.1-1.2
	c0.5-0.3,1.1-0.4,1.6-0.4c0.7,0,1.3,0.2,1.8,0.6c0.5,0.4,0.8,1,0.9,1.6l-1.1,0.2c-0.1-0.4-0.3-0.7-0.6-1c-0.3-0.2-0.6-0.4-1-0.4
	c-0.5,0-1.1,0.2-1.4,0.6c-0.4,0.6-0.6,1.3-0.5,2c-0.1,0.7,0.1,1.4,0.5,2c0.3,0.4,0.9,0.6,1.4,0.6c0.4,0,0.8-0.1,1.1-0.4
	C309.8,82.7,310,82.2,310.1,81.7L310.1,81.7z M316.5,83.4c-0.4,0.3-0.8,0.6-1.2,0.8c-0.4,0.1-0.8,0.2-1.3,0.2
	c-0.6,0-1.2-0.2-1.7-0.6c-0.4-0.4-0.6-0.9-0.6-1.4c0-0.6,0.3-1.2,0.8-1.6c0.3-0.2,0.5-0.3,0.8-0.4c0.3-0.1,0.7-0.1,1-0.2
	c0.7-0.1,1.4-0.2,2.1-0.4c0-0.2,0-0.3,0-0.3c0-0.4-0.1-0.7-0.3-1c-0.4-0.3-0.8-0.4-1.3-0.4c-0.4,0-0.9,0.1-1.2,0.3
	c-0.3,0.3-0.5,0.6-0.6,1l-1.1-0.1c0.1-0.4,0.2-0.8,0.5-1.2c0.3-0.3,0.6-0.6,1-0.7c0.5-0.2,1-0.3,1.5-0.2c0.5,0,1,0.1,1.4,0.2
	c0.3,0.1,0.6,0.3,0.8,0.5c0.2,0.2,0.3,0.5,0.4,0.8c0,0.4,0.1,0.7,0,1.1v1.5c0,0.7,0,1.3,0.1,2c0.1,0.3,0.2,0.6,0.3,0.8h-1.2
	C316.6,83.9,316.5,83.6,316.5,83.4L316.5,83.4z M316.4,80.8c-0.6,0.2-1.3,0.4-1.9,0.4c-0.3,0-0.7,0.1-1,0.2
	c-0.2,0.1-0.3,0.2-0.5,0.4c-0.1,0.2-0.2,0.4-0.1,0.6c0,0.3,0.1,0.6,0.3,0.8c0.3,0.2,0.6,0.3,1,0.3c0.4,0,0.8-0.1,1.2-0.3
	c0.3-0.2,0.6-0.5,0.8-0.8c0.1-0.4,0.2-0.8,0.2-1.1L316.4,80.8L316.4,80.8z M323.6,84.2v-0.9c-0.4,0.7-1.1,1-1.9,1
	c-0.5,0-1.1-0.1-1.5-0.4c-0.5-0.3-0.8-0.7-1.1-1.3c-0.3-0.6-0.4-1.2-0.4-1.9c0-0.6,0.1-1.3,0.3-1.9c0.4-1.1,1.4-1.7,2.5-1.7
	c0.4,0,0.8,0.1,1.1,0.3c0.3,0.2,0.6,0.4,0.8,0.7v-3.4h1.1v9.4L323.6,84.2L323.6,84.2z M320,80.8c-0.1,0.7,0.1,1.4,0.5,2
	c0.6,0.7,1.6,0.8,2.3,0.3c0.1-0.1,0.2-0.2,0.3-0.3c0.4-0.5,0.6-1.2,0.5-1.9c0.1-0.7-0.1-1.5-0.5-2.1c-0.3-0.4-0.8-0.7-1.3-0.7
	c-0.5,0-1,0.2-1.3,0.6C320.1,79.4,319.9,80.1,320,80.8z M331.1,82l1.2,0.1c-0.1,0.6-0.5,1.2-1,1.6c-0.6,0.4-1.3,0.6-2,0.6
	c-0.9,0-1.8-0.3-2.4-0.9c-0.6-0.7-0.9-1.7-0.9-2.6c-0.1-1,0.3-1.9,0.9-2.7c0.6-0.7,1.4-1,2.3-1c0.8,0,1.7,0.3,2.2,0.9
	c0.6,0.7,0.9,1.7,0.9,2.6V81h-5.1c0,0.6,0.2,1.2,0.6,1.7c0.4,0.4,0.9,0.6,1.4,0.6c0.4,0,0.8-0.1,1.1-0.3
	C330.7,82.8,330.9,82.4,331.1,82z M327.3,80.1h3.8c0-0.5-0.2-0.9-0.4-1.3c-0.3-0.4-0.9-0.7-1.4-0.7c-0.5,0-1,0.2-1.4,0.5
	C327.5,79.1,327.3,79.6,327.3,80.1L327.3,80.1z"/>
<path class="st4" d="M373.1,47.2h91.6v65h-91.6V47.2z"/>
<path class="st0" d="M373.1,47.2h91.6v65h-91.6V47.2z"/>
<path d="M400.5,84.2v-9.4h1.2v8.3h4.7v1.1H400.5z M412.1,83.4c-0.4,0.3-0.8,0.6-1.2,0.8c-0.4,0.1-0.8,0.2-1.3,0.2
	c-0.6,0-1.2-0.2-1.7-0.6c-0.4-0.4-0.6-0.9-0.6-1.4c0-0.6,0.3-1.2,0.8-1.6c0.3-0.2,0.5-0.3,0.8-0.4c0.3-0.1,0.7-0.1,1-0.2
	c0.7-0.1,1.4-0.2,2.1-0.4c0-0.2,0-0.3,0-0.3c0-0.4-0.1-0.7-0.3-1c-0.4-0.3-0.8-0.4-1.3-0.4c-0.4,0-0.9,0.1-1.2,0.3
	c-0.3,0.3-0.5,0.6-0.6,1l-1.1-0.1c0.1-0.4,0.2-0.8,0.5-1.2c0.3-0.3,0.6-0.6,1-0.7c0.5-0.2,1-0.3,1.5-0.2c0.5,0,1,0.1,1.4,0.2
	c0.3,0.1,0.6,0.3,0.8,0.5c0.2,0.2,0.3,0.5,0.4,0.8c0,0.4,0.1,0.7,0,1.1v1.5c0,0.7,0,1.3,0.1,2c0.1,0.3,0.2,0.6,0.3,0.8h-1.2
	C412.1,83.9,412.1,83.6,412.1,83.4L412.1,83.4z M412,80.8c-0.6,0.2-1.3,0.4-1.9,0.4c-0.3,0-0.7,0.1-1,0.2c-0.2,0.1-0.3,0.2-0.5,0.4
	c-0.1,0.2-0.2,0.4-0.1,0.6c0,0.3,0.1,0.6,0.3,0.8c0.3,0.2,0.6,0.3,1,0.3c0.4,0,0.8-0.1,1.2-0.3c0.3-0.2,0.6-0.5,0.8-0.8
	c0.1-0.4,0.2-0.8,0.2-1.1L412,80.8L412,80.8z M414.7,86.8l-0.1-1.1c0.2,0.1,0.4,0.1,0.7,0.1c0.2,0,0.4,0,0.6-0.1
	c0.2-0.1,0.3-0.2,0.4-0.4c0.1-0.3,0.3-0.6,0.4-0.9l0.1-0.3l-2.6-6.9h1.2l1.4,4c0.2,0.5,0.3,1,0.5,1.6c0.1-0.5,0.3-1.1,0.5-1.6l1.5-4
	h1.2l-2.6,7c-0.2,0.5-0.4,1-0.6,1.6c-0.2,0.3-0.4,0.6-0.7,0.8c-0.3,0.2-0.6,0.3-1,0.3C415.2,87,414.9,87,414.7,86.8L414.7,86.8z
	 M420.8,80.8c-0.1-1.1,0.3-2.1,1.1-2.8c0.6-0.5,1.4-0.8,2.1-0.8c0.9,0,1.7,0.3,2.3,0.9c0.6,0.7,0.9,1.6,0.9,2.6
	c0,0.7-0.1,1.4-0.4,2.1c-0.3,0.5-0.7,0.9-1.1,1.2c-0.5,0.3-1.1,0.4-1.6,0.4c-0.9,0-1.7-0.3-2.3-0.9C421,82.7,420.7,81.7,420.8,80.8
	L420.8,80.8z M422,80.8c-0.1,0.7,0.1,1.4,0.6,2c0.7,0.8,1.9,0.9,2.7,0.2c0.1-0.1,0.1-0.1,0.2-0.2c0.4-0.6,0.6-1.3,0.6-2
	c0-0.7-0.2-1.4-0.6-1.9c-0.7-0.8-1.9-0.9-2.7-0.2c-0.1,0.1-0.1,0.1-0.2,0.2C422.1,79.4,421.9,80.1,422,80.8L422,80.8z M432.9,84.2
	v-1c-0.5,0.7-1.3,1.2-2.2,1.1c-0.4,0-0.8-0.1-1.1-0.2c-0.3-0.1-0.6-0.3-0.8-0.6c-0.2-0.3-0.3-0.6-0.3-0.9c-0.1-0.4-0.1-0.7-0.1-1.1
	v-4.2h1.2v3.8c0,0.4,0,0.8,0.1,1.2c0.1,0.3,0.2,0.5,0.5,0.7c0.3,0.2,0.6,0.3,0.9,0.3c0.4,0,0.7-0.1,1-0.3c0.3-0.2,0.5-0.4,0.7-0.7
	c0.1-0.4,0.2-0.9,0.2-1.4v-3.7h1.1v6.8L432.9,84.2L432.9,84.2z M438.1,83.2l0.2,1c-0.3,0.1-0.6,0.1-0.9,0.1c-0.3,0-0.7-0.1-1-0.2
	c-0.2-0.1-0.4-0.3-0.5-0.5c-0.1-0.4-0.2-0.9-0.1-1.4v-3.9h-0.9v-0.9h0.9v-1.7l1.1-0.7v2.4h1.2v0.9h-1.2v4c0,0.2,0,0.4,0,0.6
	c0,0.1,0.1,0.2,0.2,0.2c0.1,0.1,0.2,0.1,0.4,0.1C437.7,83.2,437.9,83.2,438.1,83.2L438.1,83.2z"/>
<path class="st0" d="M484.7,47.2h91.6v65h-91.6V47.2z"/>
<path class="st1" d="M484.7,47.2h91.6v65h-91.6V47.2z"/>
<path d="M516.9,84.2v-9.4h3.6c0.5,0,1,0,1.4,0.1c0.4,0.1,0.8,0.2,1.2,0.4c0.3,0.2,0.6,0.5,0.8,0.9c0.2,0.4,0.3,0.8,0.3,1.3
	c0,0.7-0.3,1.5-0.8,2c-0.8,0.6-1.8,1-2.8,0.8h-2.4v3.8L516.9,84.2L516.9,84.2z M518.1,79.3h2.5c0.6,0.1,1.2-0.1,1.7-0.4
	c0.4-0.3,0.5-0.8,0.5-1.3c0-0.4-0.1-0.7-0.3-1c-0.2-0.3-0.5-0.5-0.8-0.6c-0.4-0.1-0.8-0.1-1.2-0.1h-2.4L518.1,79.3L518.1,79.3z
	 M529.8,83.4c-0.4,0.3-0.8,0.6-1.2,0.8c-0.4,0.1-0.8,0.2-1.3,0.2c-0.6,0-1.2-0.2-1.7-0.6c-0.4-0.4-0.6-0.9-0.6-1.4
	c0-0.6,0.3-1.2,0.8-1.6c0.3-0.2,0.5-0.3,0.8-0.4c0.3-0.1,0.7-0.1,1-0.2c0.7-0.1,1.4-0.2,2.1-0.4c0-0.2,0-0.3,0-0.3
	c0-0.4-0.1-0.7-0.3-1c-0.4-0.3-0.8-0.4-1.3-0.4c-0.4,0-0.9,0.1-1.2,0.3c-0.3,0.3-0.5,0.6-0.6,1l-1.1-0.1c0.1-0.4,0.2-0.8,0.5-1.2
	c0.3-0.3,0.6-0.6,1-0.7c0.5-0.2,1-0.3,1.5-0.2c0.5,0,1,0.1,1.4,0.2c0.3,0.1,0.6,0.3,0.8,0.5c0.2,0.2,0.3,0.5,0.4,0.8
	c0,0.4,0.1,0.7,0,1.1v1.5c0,0.7,0,1.3,0.1,2c0.1,0.3,0.2,0.6,0.3,0.8H530C529.9,83.9,529.8,83.6,529.8,83.4L529.8,83.4z M529.7,80.8
	c-0.6,0.2-1.3,0.4-1.9,0.4c-0.3,0-0.7,0.1-1,0.2c-0.2,0.1-0.3,0.2-0.5,0.4c-0.1,0.2-0.2,0.4-0.2,0.6c0,0.3,0.1,0.6,0.3,0.8
	c0.3,0.2,0.6,0.3,1,0.3c0.4,0,0.8-0.1,1.2-0.3c0.3-0.2,0.6-0.5,0.8-0.8c0.1-0.4,0.2-0.8,0.2-1.1L529.7,80.8L529.7,80.8z M532.5,76.1
	v-1.3h1.2v1.3H532.5z M532.5,84.2v-6.8h1.2v6.8H532.5z M535.3,84.2v-6.8h1v1c0.5-0.7,1.3-1.2,2.2-1.1c0.4,0,0.8,0.1,1.1,0.2
	c0.3,0.1,0.6,0.3,0.8,0.6c0.2,0.3,0.3,0.5,0.4,0.9c0.1,0.4,0.1,0.8,0.1,1.1v4.2h-1.2V80c0-0.3,0-0.7-0.1-1c-0.1-0.2-0.2-0.4-0.5-0.6
	c-0.2-0.2-0.5-0.2-0.8-0.2c-0.5,0-0.9,0.2-1.3,0.5c-0.4,0.5-0.6,1.1-0.5,1.8v3.7L535.3,84.2L535.3,84.2z M545.1,83.2l0.2,1
	c-0.3,0.1-0.6,0.1-0.9,0.1c-0.3,0-0.7-0.1-1-0.2c-0.2-0.1-0.4-0.3-0.5-0.5c-0.1-0.4-0.2-0.9-0.1-1.4v-3.9h-0.8v-0.9h0.8v-1.7
	l1.2-0.7v2.4h1.2v0.9h-1.1v4c0,0.2,0,0.4,0,0.6c0,0.1,0.1,0.2,0.2,0.2c0.1,0.1,0.2,0.1,0.4,0.1C544.7,83.2,544.9,83.2,545.1,83.2
	L545.1,83.2z"/>
<path class="st2" d="M596.4,47.2H688v65h-91.6V47.2z"/>
<path class="st3" d="M596.4,47.2H688v65h-91.6V47.2z"/>
<path d="M619.2,80.9l1.2,0.3c-0.2,0.9-0.7,1.8-1.4,2.4c-0.7,0.6-1.6,0.8-2.5,0.8c-0.9,0-1.7-0.2-2.5-0.6c-0.7-0.4-1.2-1.1-1.5-1.8
	c-0.3-0.8-0.5-1.7-0.5-2.5c0-0.9,0.2-1.8,0.6-2.6c0.3-0.7,0.9-1.3,1.6-1.7c0.7-0.4,1.5-0.6,2.3-0.6c0.9,0,1.7,0.2,2.4,0.7
	c0.7,0.5,1.1,1.2,1.4,2l-1.2,0.3c-0.2-0.6-0.5-1.1-1-1.5c-0.5-0.3-1-0.5-1.6-0.5c-0.6,0-1.3,0.2-1.8,0.5c-0.5,0.4-0.8,0.8-1,1.4
	c-0.2,0.6-0.3,1.2-0.3,1.8c0,0.7,0.1,1.4,0.3,2.1c0.2,0.6,0.6,1,1.1,1.4c0.5,0.3,1,0.4,1.6,0.4c0.6,0,1.3-0.2,1.8-0.6
	C618.7,82.2,619,81.6,619.2,80.9z M621.2,80.8c-0.1-1,0.3-2.1,1-2.8c0.6-0.5,1.4-0.8,2.1-0.8c0.9,0,1.7,0.3,2.3,0.9
	c0.6,0.7,0.9,1.6,0.9,2.6c0,0.7-0.1,1.4-0.4,2.1c-0.3,0.5-0.7,0.9-1.2,1.2c-0.5,0.3-1.1,0.4-1.7,0.4c-0.9,0-1.7-0.3-2.3-0.9
	C621.4,82.7,621.1,81.8,621.2,80.8L621.2,80.8z M622.4,80.8c-0.1,0.7,0.1,1.4,0.6,2c0.7,0.8,1.9,0.9,2.7,0.2
	c0.1-0.1,0.1-0.1,0.2-0.2c0.4-0.6,0.6-1.3,0.6-2c0-0.7-0.2-1.4-0.6-1.9c-0.7-0.8-1.9-0.9-2.7-0.2c-0.1,0.1-0.1,0.1-0.2,0.2
	C622.5,79.4,622.3,80.1,622.4,80.8L622.4,80.8z M628.8,84.2v-6.8h1v1c0.2-0.3,0.5-0.6,0.8-0.8c0.4-0.2,0.8-0.3,1.2-0.3
	c0.4,0,0.9,0.1,1.2,0.3c0.3,0.2,0.6,0.5,0.7,0.9c0.4-0.7,1.3-1.2,2.1-1.2c0.6,0,1.1,0.2,1.6,0.6c0.4,0.5,0.6,1.1,0.5,1.7v4.7h-1.2
	v-4.3c0-0.3,0-0.7-0.1-1c-0.1-0.2-0.2-0.4-0.4-0.5c-0.2-0.1-0.5-0.2-0.7-0.2c-0.4,0-0.9,0.2-1.2,0.5c-0.4,0.4-0.5,1-0.5,1.5v4h-1.1
	v-4.4c0-0.4-0.1-0.8-0.3-1.2c-0.2-0.3-0.6-0.4-0.9-0.4c-0.3,0-0.6,0.1-0.9,0.3c-0.3,0.2-0.5,0.4-0.6,0.8c-0.1,0.5-0.2,0.9-0.2,1.4
	v3.5L628.8,84.2L628.8,84.2z M639.5,86.8v-9.5h1.1v0.9c0.2-0.3,0.5-0.6,0.8-0.8c0.4-0.2,0.8-0.3,1.2-0.3c1.1,0,2.1,0.7,2.5,1.7
	c0.2,0.6,0.3,1.2,0.3,1.8c0,0.7-0.1,1.3-0.4,1.9c-0.4,1-1.5,1.7-2.6,1.7c-0.3,0-0.7-0.1-1-0.2c-0.3-0.2-0.5-0.4-0.7-0.6v3.3
	L639.5,86.8L639.5,86.8z M640.6,80.8c-0.1,0.7,0.1,1.4,0.5,2c0.3,0.4,0.8,0.6,1.3,0.6c0.5,0,1-0.2,1.3-0.6c0.4-0.6,0.6-1.3,0.5-2
	c0.1-0.7-0.1-1.4-0.5-2c-0.3-0.4-0.8-0.7-1.3-0.7c-0.5,0-1,0.3-1.3,0.7C640.7,79.4,640.5,80.1,640.6,80.8L640.6,80.8z M646.2,80.8
	c-0.1-1.1,0.3-2.1,1.1-2.8c0.6-0.5,1.4-0.8,2.1-0.8c0.9,0,1.7,0.3,2.3,0.9c0.6,0.7,0.9,1.6,0.9,2.6c0,0.7-0.1,1.4-0.4,2.1
	c-0.3,0.5-0.7,0.9-1.2,1.2c-0.5,0.3-1.1,0.4-1.7,0.4c-0.9,0-1.7-0.3-2.3-0.9C646.5,82.7,646.1,81.8,646.2,80.8L646.2,80.8z
	 M647.4,80.8c-0.1,0.7,0.1,1.4,0.6,2c0.7,0.8,1.9,0.9,2.7,0.2c0.1-0.1,0.1-0.1,0.2-0.2c0.4-0.6,0.6-1.3,0.6-2c0-0.7-0.2-1.4-0.6-1.9
	c-0.7-0.8-1.9-0.9-2.7-0.2c-0.1,0.1-0.1,0.1-0.2,0.2C647.6,79.5,647.4,80.1,647.4,80.8L647.4,80.8z M653.4,82.2l1.1-0.2
	c0,0.4,0.2,0.7,0.5,1c0.4,0.3,0.8,0.4,1.2,0.4c0.4,0,0.8-0.1,1.2-0.3c0.2-0.2,0.4-0.5,0.4-0.8c0-0.3-0.1-0.5-0.3-0.6
	c-0.4-0.2-0.8-0.3-1.2-0.4c-0.6-0.1-1.2-0.3-1.8-0.6c-0.3-0.1-0.6-0.4-0.7-0.7c-0.5-0.8-0.2-1.9,0.5-2.4c0.2-0.2,0.5-0.3,0.7-0.3
	c0.3-0.1,0.7-0.1,1-0.1c0.5,0,1,0.1,1.4,0.2c0.4,0.1,0.7,0.3,0.9,0.6c0.2,0.3,0.4,0.7,0.4,1.1l-1.1,0.1c0-0.3-0.2-0.6-0.5-0.8
	c-0.3-0.2-0.6-0.3-1-0.3c-0.4,0-0.8,0.1-1.1,0.3c-0.2,0.1-0.3,0.4-0.3,0.6c0,0.1,0,0.3,0.1,0.4c0.1,0.1,0.3,0.3,0.5,0.3l1,0.3
	c0.6,0.1,1.2,0.3,1.7,0.5c0.3,0.1,0.6,0.3,0.8,0.6c0.2,0.3,0.3,0.6,0.3,1c0,0.4-0.1,0.8-0.3,1.1c-0.2,0.4-0.6,0.6-1,0.8
	c-0.5,0.2-0.9,0.3-1.4,0.3c-0.7,0-1.4-0.2-2-0.6C653.8,83.4,653.4,82.8,653.4,82.2L653.4,82.2z M660.3,76.1v-1.3h1.2v1.3H660.3z
	 M660.3,84.2v-6.8h1.2v6.8H660.3z M665.7,83.2l0.2,1c-0.3,0.1-0.6,0.1-0.9,0.1c-0.3,0-0.7-0.1-1-0.2c-0.2-0.1-0.4-0.3-0.5-0.5
	c-0.1-0.4-0.2-0.9-0.1-1.4v-3.9h-0.8v-0.9h0.8v-1.7l1.2-0.7v2.4h1.2v0.9h-1.2v4c0,0.2,0,0.4,0,0.6c0,0.1,0.1,0.2,0.2,0.2
	c0.1,0.1,0.2,0.1,0.4,0.1C665.3,83.3,665.5,83.2,665.7,83.2L665.7,83.2z M671.4,82.1l1.2,0.1c-0.1,0.6-0.5,1.2-1,1.6
	c-0.6,0.4-1.3,0.6-2,0.6c-0.9,0-1.8-0.3-2.4-0.9c-0.6-0.7-0.9-1.7-0.9-2.6c-0.1-1,0.3-1.9,0.9-2.7c0.6-0.7,1.4-1,2.3-1
	c0.8,0,1.7,0.3,2.2,0.9c0.6,0.7,0.9,1.7,0.9,2.6v0.3h-5.1c0,0.6,0.2,1.2,0.6,1.7c0.4,0.4,0.9,0.6,1.4,0.6c0.4,0,0.8-0.1,1.1-0.3
	C671,82.8,671.3,82.4,671.4,82.1L671.4,82.1z M667.6,80.2h3.8c0-0.5-0.2-0.9-0.4-1.3c-0.3-0.4-0.9-0.7-1.4-0.7c-0.5,0-1,0.2-1.4,0.5
	C667.8,79.1,667.6,79.6,667.6,80.2L667.6,80.2z"/>
<path class="st3" d="M353.1,79.7h14.7"/>
<path class="st5" d="M367.8,81.2l4-1.4l-4-1.4V81.2z"/>
<path class="st3" d="M464.7,79.7h14.7"/>
<path class="st5" d="M479.4,81.2l4-1.4l-4-1.4V81.2z"/>
<path class="st3" d="M576.4,79.7h14.7"/>
<path class="st5" d="M591.1,81.2l4-1.4l-4-1.4V81.2z"/>
<path class="st0" d="M135.7,92.1h91.6v65h-91.6V92.1z"/>
<path class="st6" d="M135.7,92.1h91.6v65h-91.6V92.1z"/>
<path d="M165.7,125.7l1.2,0.3c-0.2,0.9-0.7,1.8-1.4,2.3c-0.7,0.6-1.6,0.8-2.5,0.8c-0.9,0-1.7-0.2-2.5-0.6c-0.7-0.4-1.2-1.1-1.5-1.8
	c-0.3-0.8-0.5-1.7-0.5-2.5c0-0.9,0.2-1.8,0.6-2.6c0.3-0.7,0.9-1.3,1.6-1.7c0.7-0.4,1.5-0.6,2.3-0.6c0.9,0,1.7,0.2,2.4,0.7
	c0.7,0.5,1.1,1.2,1.4,2l-1.2,0.3c-0.2-0.6-0.5-1.1-1-1.5c-0.5-0.3-1-0.5-1.6-0.5c-0.6,0-1.3,0.2-1.8,0.5c-0.5,0.4-0.8,0.8-1,1.4
	c-0.2,0.6-0.3,1.2-0.3,1.8c0,0.7,0.1,1.4,0.3,2.1c0.2,0.6,0.6,1,1.1,1.4c0.5,0.3,1,0.4,1.6,0.4c0.6,0,1.3-0.2,1.8-0.6
	C165.2,127.1,165.5,126.4,165.7,125.7z M167.8,126l1.2-0.1c0,0.4,0.2,0.8,0.4,1.1c0.2,0.3,0.6,0.6,0.9,0.7c0.5,0.2,1,0.3,1.5,0.3
	c0.4,0,0.9-0.1,1.3-0.2c0.3-0.1,0.6-0.3,0.8-0.6c0.2-0.2,0.3-0.5,0.3-0.8c0-0.3-0.1-0.6-0.3-0.8c-0.2-0.3-0.5-0.4-0.9-0.6
	c-0.3-0.1-0.8-0.2-1.7-0.4c-0.6-0.1-1.2-0.3-1.8-0.6c-0.4-0.2-0.7-0.5-1-0.9c-0.2-0.4-0.3-0.8-0.3-1.2c0-0.5,0.1-0.9,0.4-1.3
	c0.3-0.4,0.7-0.8,1.2-0.9c0.5-0.2,1.1-0.3,1.7-0.3c0.6,0,1.3,0.1,1.9,0.3c0.5,0.2,0.9,0.5,1.2,1c0.3,0.4,0.5,1,0.5,1.5l-1.2,0.1
	c0-0.5-0.3-1-0.7-1.4c-0.5-0.3-1-0.5-1.6-0.5c-0.6,0-1.2,0.1-1.6,0.4c-0.3,0.2-0.5,0.6-0.5,1c0,0.3,0.1,0.6,0.4,0.8
	c0.6,0.3,1.2,0.6,1.9,0.7c0.7,0.1,1.4,0.3,2.1,0.6c0.5,0.2,0.9,0.6,1.2,1c0.3,0.4,0.4,0.9,0.4,1.3c0,0.5-0.2,1-0.4,1.4
	c-0.3,0.4-0.7,0.8-1.2,1c-0.6,0.3-1.2,0.4-1.8,0.4c-0.7,0-1.5-0.1-2.1-0.4c-0.6-0.2-1-0.6-1.4-1.1C168,127.2,167.8,126.6,167.8,126
	L167.8,126z M176.4,126l1.2-0.1c0,0.4,0.2,0.8,0.4,1.1c0.2,0.3,0.6,0.6,0.9,0.7c0.5,0.2,1,0.3,1.5,0.3c0.4,0,0.9-0.1,1.3-0.2
	c0.3-0.1,0.6-0.3,0.8-0.6c0.2-0.2,0.3-0.5,0.3-0.8c0-0.3-0.1-0.6-0.3-0.8c-0.2-0.3-0.5-0.4-0.9-0.6c-0.3-0.1-0.8-0.2-1.7-0.4
	c-0.6-0.1-1.2-0.3-1.8-0.6c-0.4-0.2-0.7-0.5-1-0.9c-0.2-0.4-0.3-0.8-0.3-1.2c0-0.5,0.1-0.9,0.4-1.3c0.3-0.4,0.7-0.8,1.2-0.9
	c0.5-0.2,1.1-0.3,1.7-0.3c0.6,0,1.3,0.1,1.9,0.3c0.5,0.2,0.9,0.5,1.2,1c0.3,0.4,0.5,1,0.5,1.5l-1.2,0.1c0-0.5-0.3-1-0.7-1.4
	c-0.5-0.3-1-0.5-1.6-0.5c-0.6,0-1.2,0.1-1.6,0.4c-0.3,0.2-0.5,0.6-0.5,1c0,0.3,0.1,0.6,0.4,0.8c0.6,0.3,1.2,0.6,1.9,0.7
	c0.7,0.1,1.4,0.3,2.1,0.6c0.5,0.2,0.9,0.6,1.2,1c0.3,0.4,0.4,0.9,0.4,1.3c0,0.5-0.2,1-0.4,1.4c-0.3,0.4-0.7,0.8-1.2,1
	c-0.6,0.3-1.2,0.4-1.8,0.4c-0.7,0-1.5-0.1-2.1-0.4c-0.6-0.2-1-0.6-1.4-1.1C176.6,127.2,176.4,126.6,176.4,126L176.4,126z
	 M185.1,124.4c-0.1-1.3,0.4-2.7,1.3-3.7c0.8-0.9,2-1.4,3.3-1.3c0.8,0,1.6,0.2,2.4,0.6c0.7,0.4,1.2,1,1.6,1.7c0.8,1.6,0.8,3.5,0,5.1
	c-0.4,0.7-0.9,1.3-1.6,1.7c-0.7,0.4-1.5,0.6-2.3,0.6c-0.8,0-1.7-0.2-2.4-0.6c-0.7-0.4-1.2-1-1.6-1.8
	C185.2,126.1,185,125.3,185.1,124.4L185.1,124.4z M186.3,124.4c-0.1,1,0.3,1.9,0.9,2.7c0.6,0.7,1.4,1,2.3,1c0.9,0,1.7-0.3,2.3-1
	c0.7-0.8,1-1.8,0.9-2.8c0-0.7-0.1-1.4-0.4-2c-0.2-0.5-0.6-1-1.1-1.3c-0.5-0.3-1.1-0.5-1.7-0.5c-0.9,0-1.7,0.3-2.3,0.9
	C186.6,122.3,186.2,123.4,186.3,124.4L186.3,124.4z M195.4,129v-9.4h1.9l2.2,6.7l0.4,1.4c0.1-0.3,0.3-0.8,0.5-1.5l2.3-6.6h1.7v9.4
	h-1.2v-7.9l-2.7,7.9h-1.1l-2.7-8v8L195.4,129L195.4,129z"/>
<path class="st7" d="M101.6,79.7h17V41.1h17"/>
<path class="st3" d="M101.6,79.7h17V41.1h11.8"/>
<path class="st5" d="M130.4,42.5l4-1.4l-4-1.4V42.5z"/>
<path class="st7" d="M101.6,79.7h17v44.8h17"/>
<path class="st3" d="M101.6,79.7h17v44.8h11.8"/>
<path class="st5" d="M130.4,126l4-1.4l-4-1.4V126z"/>
<path class="st7" d="M227.4,41.1h17v38.7h17"/>
<path class="st3" d="M227.4,41.1h17v38.7h11.7"/>
<path class="st5" d="M256.1,81.2l4-1.4l-4-1.4V81.2z"/>
<path class="st7" d="M227.4,124.6h17V79.8h17"/>
<path class="st3" d="M227.4,124.6h17V79.8h11.7"/>
<path class="st5" d="M256.1,81.2l4-1.4l-4-1.4V81.2z"/>
</svg>
