<svg id="Layer_1" data-name="Layer 1" xmlns="http://www.w3.org/2000/svg" width="720" height="350" viewBox="0 0 720 350">
  <defs>
    <style>
      .cls-1, .cls-11, .cls-6 {
        fill: #e5e5e5;
      }

      .cls-2, .cls-4, .cls-9 {
        fill: none;
      }

      .cls-2, .cls-4, .cls-6, .cls-7, .cls-9 {
        stroke: #000;
      }

      .cls-2, .cls-4, .cls-6, .cls-9 {
        stroke-linejoin: round;
      }

      .cls-2, .cls-6 {
        stroke-dasharray: 1 3;
      }

      .cls-3 {
        fill: #ff9327;
      }

      .cls-5 {
        fill: #efeeee;
      }

      .cls-7 {
        stroke-miterlimit: 10;
      }

      .cls-8 {
        fill: #ffd2a6;
      }

      .cls-9 {
        stroke-dasharray: 4 3;
      }

      .cls-10 {
        fill: #c0ffcf;
      }

      .cls-11, .cls-12 {
        fill-opacity: 0;
      }
    </style>
  </defs>
  <title>render-pipeline-polyfill</title>
  <path class="cls-1" d="M10,175.24h91.64v65H10v-65Z"/>
  <path class="cls-2" d="M10,175.24h91.64v65H10v-65Z"/>
  <path d="M37.86,212.21v-9.44h3.56a9.43,9.43,0,0,1,1.44.08,2.85,2.85,0,0,1,1.15.45,2.22,2.22,0,0,1,.77.91,2.85,2.85,0,0,1,.29,1.29,2.9,2.9,0,0,1-.77,2,3.68,3.68,0,0,1-2.78.84H39.11v3.83H37.86Zm1.25-4.95h2.45a2.57,2.57,0,0,0,1.72-.45,1.62,1.62,0,0,0,.51-1.28,1.65,1.65,0,0,0-.3-1A1.42,1.42,0,0,0,42.7,204a5.44,5.44,0,0,0-1.17-.08H39.11v3.38Zm11.66,4.11a4.66,4.66,0,0,1-1.24.77,3.64,3.64,0,0,1-1.28.22,2.49,2.49,0,0,1-1.73-.55,1.81,1.81,0,0,1-.6-1.4,1.83,1.83,0,0,1,.82-1.58,2.6,2.6,0,0,1,.84-0.38,6.91,6.91,0,0,1,1-.18,10.3,10.3,0,0,0,2.06-.4q0-.23,0-0.3a1.28,1.28,0,0,0-.33-1,2,2,0,0,0-1.32-.38,2.09,2.09,0,0,0-1.22.29,1.67,1.67,0,0,0-.56,1l-1.14-.15a2.69,2.69,0,0,1,.51-1.17,2.18,2.18,0,0,1,1-.69,4.49,4.49,0,0,1,1.55-.25,4,4,0,0,1,1.42.21,1.88,1.88,0,0,1,.81.52,1.68,1.68,0,0,1,.36.78,7,7,0,0,1,.05,1.07v1.54a17.67,17.67,0,0,0,.07,2,2.8,2.8,0,0,0,.3.82H51A2.5,2.5,0,0,1,50.77,211.37Zm-0.1-2.6a8.32,8.32,0,0,1-1.9.44,5,5,0,0,0-1,.23,1,1,0,0,0-.45.37,1,1,0,0,0-.15.55,1,1,0,0,0,.34.78,1.55,1.55,0,0,0,1,.3,2.43,2.43,0,0,0,1.2-.29,1.87,1.87,0,0,0,.77-0.81,2.86,2.86,0,0,0,.18-1.15v-0.43Zm2.78,3.43v-6.84h1v1a2.8,2.8,0,0,1,.74-1,1.29,1.29,0,0,1,.74-0.23,2.27,2.27,0,0,1,1.2.37l-0.4,1.07a1.68,1.68,0,0,0-.85-0.25,1.09,1.09,0,0,0-.69.23,1.17,1.17,0,0,0-.43.63,4.51,4.51,0,0,0-.19,1.35v3.59H53.46Zm3.85-2,1.14-.18A1.62,1.62,0,0,0,59,211a1.86,1.86,0,0,0,1.24.37,1.84,1.84,0,0,0,1.18-.32,1,1,0,0,0,.38-0.77,0.69,0.69,0,0,0-.34-0.62,4.41,4.41,0,0,0-1.18-.4,10.77,10.77,0,0,1-1.77-.55,1.86,1.86,0,0,1-.74-0.66,1.82,1.82,0,0,1,.52-2.4,2.33,2.33,0,0,1,.74-0.34,3.54,3.54,0,0,1,1-.14,3.87,3.87,0,0,1,1.4.23,1.92,1.92,0,0,1,.91.63,2.39,2.39,0,0,1,.4,1.06l-1.13.15a1.23,1.23,0,0,0-.45-0.82,1.61,1.61,0,0,0-1-.3,1.84,1.84,0,0,0-1.14.27,0.76,0.76,0,0,0-.34.62,0.64,0.64,0,0,0,.14.4,1.08,1.08,0,0,0,.45.32l1,0.29a14.46,14.46,0,0,1,1.72.54,1.67,1.67,0,0,1,.77.62,1.7,1.7,0,0,1,.27,1,1.9,1.9,0,0,1-.34,1.09,2.19,2.19,0,0,1-1,.8,3.59,3.59,0,0,1-1.44.27,3.24,3.24,0,0,1-2-.55A2.59,2.59,0,0,1,57.31,210.16ZM68.89,210l1.2,0.14a2.87,2.87,0,0,1-1,1.63,3.19,3.19,0,0,1-2,.58,3.13,3.13,0,0,1-2.38-.92,3.61,3.61,0,0,1-.88-2.6,3.74,3.74,0,0,1,.89-2.67,3,3,0,0,1,2.31-1,2.91,2.91,0,0,1,2.24.93,3.72,3.72,0,0,1,.87,2.62v0.32H65a2.7,2.7,0,0,0,.63,1.73,1.93,1.93,0,0,0,1.44.59,1.8,1.8,0,0,0,1.09-.33A2.25,2.25,0,0,0,68.89,210Zm-3.81-1.88h3.82a2.33,2.33,0,0,0-.44-1.29,1.76,1.76,0,0,0-1.43-.67,1.87,1.87,0,0,0-1.36.54A2.13,2.13,0,0,0,65.09,208.13Zm6.27,4.08v-6.84h1v1a2.8,2.8,0,0,1,.74-1,1.29,1.29,0,0,1,.74-0.23,2.27,2.27,0,0,1,1.2.37l-0.4,1.07a1.68,1.68,0,0,0-.85-0.25,1.09,1.09,0,0,0-.69.23,1.17,1.17,0,0,0-.43.63,4.51,4.51,0,0,0-.19,1.35v3.59H71.36Z"/>
  <path class="cls-3" d="M135.72,136.55h91.64v65H135.72v-65Z"/>
  <path class="cls-4" d="M135.72,136.55h91.64v65H135.72v-65Z"/>
  <path d="M167.52,173.52v-9.44h3.26a7.72,7.72,0,0,1,1.68.14,3.13,3.13,0,0,1,1.39.67,3.87,3.87,0,0,1,1.11,1.62,6.27,6.27,0,0,1,.37,2.24,6.75,6.75,0,0,1-.25,1.91,4.56,4.56,0,0,1-.65,1.37,3.62,3.62,0,0,1-.87.85,3.52,3.52,0,0,1-1.13.48,6.8,6.8,0,0,1-1.51.15h-3.41Zm1.25-1.11h2a5,5,0,0,0,1.46-.16,2.14,2.14,0,0,0,.85-0.49,3.09,3.09,0,0,0,.69-1.2,5.92,5.92,0,0,0,.25-1.83,4.37,4.37,0,0,0-.48-2.27,2.44,2.44,0,0,0-1.18-1.07,5,5,0,0,0-1.62-.19h-2v7.21Zm7.67-3.49a5.08,5.08,0,0,1,1.26-3.67,4.29,4.29,0,0,1,3.26-1.33,4.47,4.47,0,0,1,2.36.63,4,4,0,0,1,1.59,1.73,5.95,5.95,0,0,1,0,5.11,4,4,0,0,1-1.63,1.72,4.72,4.72,0,0,1-2.29.58,4.5,4.5,0,0,1-2.39-.65,4.23,4.23,0,0,1-1.59-1.76A5.38,5.38,0,0,1,176.44,168.92Zm1.29,0a3.8,3.8,0,0,0,.92,2.69,3,3,0,0,0,2.31,1,3,3,0,0,0,2.31-1,4,4,0,0,0,.92-2.82,4.69,4.69,0,0,0-.4-2,2.91,2.91,0,0,0-1.14-1.33A3,3,0,0,0,181,165a3.2,3.2,0,0,0-2.29.92A4.07,4.07,0,0,0,177.73,168.94Zm9.08,4.58v-9.44h1.88l2.24,6.68,0.45,1.4q0.15-.51.49-1.51l2.27-6.57h1.68v9.44h-1.21v-7.9l-2.73,7.9h-1.13l-2.73-8v8h-1.21Z"/>
  <path class="cls-1" d="M261.43,175.24h91.64v65H261.43v-65Z"/>
  <path class="cls-2" d="M261.43,175.24h91.64v65H261.43v-65Z"/>
  <path d="M289.57,208.9l1.25,0.32a4.15,4.15,0,0,1-1.42,2.35,3.86,3.86,0,0,1-2.49.81,4.53,4.53,0,0,1-2.49-.62A3.91,3.91,0,0,1,283,210a6.52,6.52,0,0,1-.49-2.54,5.56,5.56,0,0,1,.56-2.57,3.83,3.83,0,0,1,1.59-1.66,4.66,4.66,0,0,1,2.29-.58,3.82,3.82,0,0,1,2.38.73,3.71,3.71,0,0,1,1.36,2l-1.24.29a2.88,2.88,0,0,0-1-1.5,2.53,2.53,0,0,0-1.57-.47,3,3,0,0,0-1.81.52,2.8,2.8,0,0,0-1,1.4,5.78,5.78,0,0,0-.29,1.81,5.92,5.92,0,0,0,.34,2.1,2.72,2.72,0,0,0,1.09,1.35,3.1,3.1,0,0,0,1.61.44,2.7,2.7,0,0,0,1.79-.6A3,3,0,0,0,289.57,208.9Zm6.89,2.47a4.67,4.67,0,0,1-1.24.77,3.64,3.64,0,0,1-1.28.22,2.49,2.49,0,0,1-1.73-.55,1.81,1.81,0,0,1-.6-1.4,1.83,1.83,0,0,1,.82-1.58,2.6,2.6,0,0,1,.84-0.38,6.91,6.91,0,0,1,1-.18,10.3,10.3,0,0,0,2.06-.4q0-.23,0-0.3a1.28,1.28,0,0,0-.33-1,2,2,0,0,0-1.32-.38,2.09,2.09,0,0,0-1.22.29,1.67,1.67,0,0,0-.56,1l-1.14-.15a2.69,2.69,0,0,1,.51-1.17,2.18,2.18,0,0,1,1-.69,4.49,4.49,0,0,1,1.55-.25,4,4,0,0,1,1.42.21,1.88,1.88,0,0,1,.81.52,1.68,1.68,0,0,1,.36.78,7,7,0,0,1,.05,1.07v1.54a17.67,17.67,0,0,0,.07,2,2.8,2.8,0,0,0,.3.82h-1.21A2.5,2.5,0,0,1,296.46,211.37Zm-0.1-2.6a8.32,8.32,0,0,1-1.9.44,5,5,0,0,0-1,.23,1,1,0,0,0-.45.37,1,1,0,0,0-.15.55,1,1,0,0,0,.34.78,1.55,1.55,0,0,0,1,.3,2.43,2.43,0,0,0,1.2-.29,1.87,1.87,0,0,0,.77-0.81,2.86,2.86,0,0,0,.18-1.15v-0.43Zm2.34,1.39,1.14-.18a1.62,1.62,0,0,0,.54,1.06,1.86,1.86,0,0,0,1.24.37,1.84,1.84,0,0,0,1.18-.32,1,1,0,0,0,.38-0.77,0.69,0.69,0,0,0-.34-0.62,4.41,4.41,0,0,0-1.18-.4,10.77,10.77,0,0,1-1.77-.55,1.86,1.86,0,0,1-.74-0.66,1.82,1.82,0,0,1,.52-2.4,2.33,2.33,0,0,1,.74-0.34,3.54,3.54,0,0,1,1-.14,3.87,3.87,0,0,1,1.4.23,1.92,1.92,0,0,1,.91.63,2.39,2.39,0,0,1,.4,1.06l-1.13.15a1.23,1.23,0,0,0-.45-0.82,1.61,1.61,0,0,0-1-.3,1.84,1.84,0,0,0-1.14.27,0.76,0.76,0,0,0-.34.62,0.64,0.64,0,0,0,.14.4,1.08,1.08,0,0,0,.45.32l1,0.29a14.46,14.46,0,0,1,1.72.54,1.67,1.67,0,0,1,.77.62,1.7,1.7,0,0,1,.27,1,1.9,1.9,0,0,1-.34,1.09,2.19,2.19,0,0,1-1,.8,3.59,3.59,0,0,1-1.44.27,3.24,3.24,0,0,1-2-.55A2.59,2.59,0,0,1,298.71,210.16Zm11.36-.45,1.14,0.14a2.92,2.92,0,0,1-1,1.85,2.79,2.79,0,0,1-1.88.66,3,3,0,0,1-2.25-.91,3.75,3.75,0,0,1-.85-2.64,4.84,4.84,0,0,1,.36-1.94,2.57,2.57,0,0,1,1.11-1.25,3.36,3.36,0,0,1,1.63-.41,2.86,2.86,0,0,1,1.83.56,2.54,2.54,0,0,1,.91,1.59l-1.13.18a1.86,1.86,0,0,0-.58-1,1.41,1.41,0,0,0-1-.36,1.8,1.8,0,0,0-1.43.63,3,3,0,0,0-.55,2,3.13,3.13,0,0,0,.52,2,1.75,1.75,0,0,0,1.39.62,1.63,1.63,0,0,0,1.14-.41A2.13,2.13,0,0,0,310.07,209.71Zm6.44,1.66a4.66,4.66,0,0,1-1.24.77,3.64,3.64,0,0,1-1.28.22,2.49,2.49,0,0,1-1.73-.55,1.81,1.81,0,0,1-.6-1.4,1.83,1.83,0,0,1,.82-1.58,2.6,2.6,0,0,1,.84-0.38,6.91,6.91,0,0,1,1-.18,10.3,10.3,0,0,0,2.06-.4q0-.23,0-0.3a1.28,1.28,0,0,0-.33-1,2,2,0,0,0-1.32-.38,2.09,2.09,0,0,0-1.22.29,1.67,1.67,0,0,0-.56,1l-1.14-.15a2.69,2.69,0,0,1,.51-1.17,2.18,2.18,0,0,1,1-.69,4.49,4.49,0,0,1,1.55-.25,4,4,0,0,1,1.42.21,1.88,1.88,0,0,1,.81.52,1.68,1.68,0,0,1,.36.78,7,7,0,0,1,.05,1.07v1.54a17.68,17.68,0,0,0,.07,2,2.8,2.8,0,0,0,.3.82h-1.21A2.5,2.5,0,0,1,316.51,211.37Zm-0.1-2.6a8.32,8.32,0,0,1-1.9.44,5,5,0,0,0-1,.23,1,1,0,0,0-.45.37,1,1,0,0,0-.15.55,1,1,0,0,0,.34.78,1.55,1.55,0,0,0,1,.3,2.43,2.43,0,0,0,1.2-.29,1.87,1.87,0,0,0,.77-0.81,2.86,2.86,0,0,0,.18-1.15v-0.43Zm7.24,3.43v-0.87a2.12,2.12,0,0,1-1.91,1,2.72,2.72,0,0,1-1.5-.44,3,3,0,0,1-1.07-1.26,4.41,4.41,0,0,1-.37-1.85,4.78,4.78,0,0,1,.34-1.85,2.69,2.69,0,0,1,2.54-1.73,2.27,2.27,0,0,1,1.1.26,2.3,2.3,0,0,1,.8.67v-3.38h1.15v9.44h-1.09ZM320,208.8a3,3,0,0,0,.55,2,1.65,1.65,0,0,0,2.6,0,2.87,2.87,0,0,0,.54-1.9,3.15,3.15,0,0,0-.55-2.06,1.65,1.65,0,0,0-1.33-.66,1.61,1.61,0,0,0-1.29.63A3.17,3.17,0,0,0,320,208.8ZM331.07,210l1.2,0.14a2.87,2.87,0,0,1-1,1.63,3.19,3.19,0,0,1-2,.58,3.13,3.13,0,0,1-2.38-.92,3.61,3.61,0,0,1-.88-2.6,3.74,3.74,0,0,1,.89-2.67,3,3,0,0,1,2.31-1,2.91,2.91,0,0,1,2.24.93,3.72,3.72,0,0,1,.87,2.62v0.32H327.2a2.7,2.7,0,0,0,.63,1.73,1.93,1.93,0,0,0,1.44.59,1.8,1.8,0,0,0,1.09-.33A2.25,2.25,0,0,0,331.07,210Zm-3.81-1.88h3.82a2.33,2.33,0,0,0-.44-1.29,1.76,1.76,0,0,0-1.43-.67,1.87,1.87,0,0,0-1.36.54A2.13,2.13,0,0,0,327.26,208.13Z"/>
  <path class="cls-5" d="M373.08,175.24h91.64v65H373.08v-65Z"/>
  <path class="cls-6" d="M373.08,175.24h91.64v65H373.08v-65Z"/>
  <path d="M400.52,212.21v-9.44h1.25v8.33h4.66v1.11h-5.91Zm11.54-.84a4.67,4.67,0,0,1-1.24.77,3.64,3.64,0,0,1-1.28.22,2.49,2.49,0,0,1-1.73-.55,1.81,1.81,0,0,1-.6-1.4,1.83,1.83,0,0,1,.82-1.58,2.6,2.6,0,0,1,.84-0.38,6.9,6.9,0,0,1,1-.18,10.3,10.3,0,0,0,2.06-.4q0-.23,0-0.3a1.28,1.28,0,0,0-.33-1,2,2,0,0,0-1.32-.38,2.09,2.09,0,0,0-1.22.29,1.67,1.67,0,0,0-.56,1l-1.14-.15a2.69,2.69,0,0,1,.51-1.17,2.18,2.18,0,0,1,1-.69,4.49,4.49,0,0,1,1.55-.25,4,4,0,0,1,1.42.21,1.88,1.88,0,0,1,.81.52,1.68,1.68,0,0,1,.36.78,7,7,0,0,1,.05,1.07v1.54a17.66,17.66,0,0,0,.07,2,2.8,2.8,0,0,0,.3.82h-1.21A2.5,2.5,0,0,1,412.05,211.37Zm-0.1-2.6a8.32,8.32,0,0,1-1.9.44,5,5,0,0,0-1,.23,1,1,0,0,0-.45.37,1,1,0,0,0-.15.55,1,1,0,0,0,.34.78,1.55,1.55,0,0,0,1,.3,2.43,2.43,0,0,0,1.2-.29,1.87,1.87,0,0,0,.77-0.81,2.86,2.86,0,0,0,.18-1.15v-0.43Zm2.76,6.07-0.14-1.09a2.79,2.79,0,0,0,.66.1,1.17,1.17,0,0,0,.62-0.14,1,1,0,0,0,.38-0.36,5.21,5.21,0,0,0,.36-0.85l0.1-.29-2.6-6.86h1.25l1.43,4q0.27,0.76.49,1.59,0.21-.8.48-1.57l1.46-4h1.17l-2.61,7a13,13,0,0,1-.65,1.55,2.28,2.28,0,0,1-.71.84,1.63,1.63,0,0,1-.95.27A2.37,2.37,0,0,1,414.71,214.85Zm6.06-6.06a3.54,3.54,0,0,1,1.06-2.82,3.18,3.18,0,0,1,2.14-.76,3.07,3.07,0,0,1,2.31.92,3.52,3.52,0,0,1,.89,2.56,4.49,4.49,0,0,1-.4,2.07,2.76,2.76,0,0,1-1.15,1.18,3.39,3.39,0,0,1-1.65.41,3.09,3.09,0,0,1-2.32-.92A3.69,3.69,0,0,1,420.77,208.79Zm1.2,0a3,3,0,0,0,.56,2,1.92,1.92,0,0,0,2.89,0,3,3,0,0,0,.58-2,2.78,2.78,0,0,0-.58-1.91,1.92,1.92,0,0,0-2.89,0A2.92,2.92,0,0,0,422,208.79Zm10.89,3.42v-1a2.53,2.53,0,0,1-2.17,1.15,2.82,2.82,0,0,1-1.14-.23,2,2,0,0,1-.78-0.58,2.23,2.23,0,0,1-.34-0.87,4.91,4.91,0,0,1-.08-1.07v-4.25h1.17v3.79a7,7,0,0,0,.07,1.22,1.24,1.24,0,0,0,.45.73,1.45,1.45,0,0,0,.88.26,1.92,1.92,0,0,0,1-.26,1.53,1.53,0,0,0,.66-0.73,3.68,3.68,0,0,0,.19-1.35v-3.67h1.15v6.84h-1Zm5.22-1,0.16,1a4.11,4.11,0,0,1-.88.11,2,2,0,0,1-1-.21,1.14,1.14,0,0,1-.48-0.52,4.32,4.32,0,0,1-.14-1.37v-3.93H434.9v-0.91h0.85v-1.69l1.15-.7v2.39h1.17v0.91h-1.17v4a2.35,2.35,0,0,0,.05.65,0.53,0.53,0,0,0,.21.22,0.75,0.75,0,0,0,.38.08A4.18,4.18,0,0,0,438.08,211.18Z"/>
  <path class="cls-1" d="M484.73,175.24h91.64v65H484.73v-65Z"/>
  <path class="cls-2" d="M484.73,175.24h91.64v65H484.73v-65Z"/>
  <path d="M516.88,212.21v-9.44h3.56a9.43,9.43,0,0,1,1.44.08,2.85,2.85,0,0,1,1.15.45,2.22,2.22,0,0,1,.77.91,2.85,2.85,0,0,1,.29,1.29,2.9,2.9,0,0,1-.77,2,3.68,3.68,0,0,1-2.78.84h-2.42v3.83h-1.25Zm1.25-4.95h2.45a2.57,2.57,0,0,0,1.72-.45,1.62,1.62,0,0,0,.51-1.28,1.65,1.65,0,0,0-.3-1,1.42,1.42,0,0,0-.78-0.56,5.44,5.44,0,0,0-1.17-.08h-2.42v3.38Zm11.66,4.11a4.67,4.67,0,0,1-1.24.77,3.64,3.64,0,0,1-1.28.22,2.49,2.49,0,0,1-1.73-.55,1.81,1.81,0,0,1-.6-1.4,1.83,1.83,0,0,1,.82-1.58,2.6,2.6,0,0,1,.84-0.38,6.91,6.91,0,0,1,1-.18,10.3,10.3,0,0,0,2.06-.4q0-.23,0-0.3a1.28,1.28,0,0,0-.33-1,2,2,0,0,0-1.32-.38,2.09,2.09,0,0,0-1.22.29,1.67,1.67,0,0,0-.56,1l-1.14-.15a2.69,2.69,0,0,1,.51-1.17,2.18,2.18,0,0,1,1-.69,4.49,4.49,0,0,1,1.55-.25,4,4,0,0,1,1.42.21,1.88,1.88,0,0,1,.81.52,1.68,1.68,0,0,1,.36.78,7,7,0,0,1,.05,1.07v1.54a17.66,17.66,0,0,0,.07,2,2.8,2.8,0,0,0,.3.82H530A2.5,2.5,0,0,1,529.79,211.37Zm-0.1-2.6a8.32,8.32,0,0,1-1.9.44,5,5,0,0,0-1,.23,1,1,0,0,0-.45.37,1,1,0,0,0-.15.55,1,1,0,0,0,.34.78,1.55,1.55,0,0,0,1,.3,2.43,2.43,0,0,0,1.2-.29,1.87,1.87,0,0,0,.77-0.81,2.86,2.86,0,0,0,.18-1.15v-0.43Zm2.81-4.67v-1.33h1.15v1.33h-1.15Zm0,8.11v-6.84h1.15v6.84h-1.15Zm2.85,0v-6.84h1v1a2.47,2.47,0,0,1,2.18-1.13,2.81,2.81,0,0,1,1.13.22,1.76,1.76,0,0,1,.78.59,2.1,2.1,0,0,1,.36.85,6.17,6.17,0,0,1,.07,1.13v4.2h-1.17V208a3,3,0,0,0-.14-1,1,1,0,0,0-.47-0.56,1.47,1.47,0,0,0-.81-0.22,1.88,1.88,0,0,0-1.28.47,2.32,2.32,0,0,0-.54,1.79v3.74h-1.17Zm9.71-1,0.16,1a4.11,4.11,0,0,1-.88.11,2,2,0,0,1-1-.21,1.14,1.14,0,0,1-.48-0.52,4.32,4.32,0,0,1-.14-1.37v-3.93h-0.85v-0.91h0.85v-1.69l1.15-.7v2.39h1.17v0.91H543.9v4a2.34,2.34,0,0,0,.05.65,0.53,0.53,0,0,0,.21.22,0.75,0.75,0,0,0,.38.08A4.18,4.18,0,0,0,545.06,211.18Z"/>
  <path class="cls-5" d="M596.38,175.24H688v65H596.38v-65Z"/>
  <path class="cls-2" d="M596.38,175.24H688v65H596.38v-65Z"/>
  <path d="M619.15,208.9l1.25,0.32a4.15,4.15,0,0,1-1.42,2.35,3.86,3.86,0,0,1-2.49.81,4.53,4.53,0,0,1-2.49-.62,3.91,3.91,0,0,1-1.46-1.8,6.52,6.52,0,0,1-.49-2.54,5.56,5.56,0,0,1,.56-2.57,3.83,3.83,0,0,1,1.59-1.66,4.66,4.66,0,0,1,2.29-.58,3.82,3.82,0,0,1,2.38.73,3.71,3.71,0,0,1,1.36,2l-1.24.29a2.88,2.88,0,0,0-1-1.5,2.53,2.53,0,0,0-1.57-.47,3,3,0,0,0-1.81.52,2.8,2.8,0,0,0-1,1.4,5.78,5.78,0,0,0-.29,1.81,5.92,5.92,0,0,0,.34,2.1,2.72,2.72,0,0,0,1.09,1.35,3.1,3.1,0,0,0,1.61.44,2.7,2.7,0,0,0,1.79-.6A3,3,0,0,0,619.15,208.9Zm2-.11A3.54,3.54,0,0,1,622.2,206a3.18,3.18,0,0,1,2.14-.76,3.07,3.07,0,0,1,2.31.92,3.52,3.52,0,0,1,.89,2.56,4.49,4.49,0,0,1-.4,2.07,2.76,2.76,0,0,1-1.15,1.18,3.39,3.39,0,0,1-1.65.41,3.09,3.09,0,0,1-2.32-.92A3.69,3.69,0,0,1,621.14,208.79Zm1.2,0a3,3,0,0,0,.56,2,1.92,1.92,0,0,0,2.89,0,3,3,0,0,0,.58-2,2.78,2.78,0,0,0-.58-1.91,1.92,1.92,0,0,0-2.89,0A2.93,2.93,0,0,0,622.34,208.79Zm6.4,3.42v-6.84h1v1a2.34,2.34,0,0,1,.85-0.81,2.45,2.45,0,0,1,1.22-.3,2.21,2.21,0,0,1,1.24.32,1.64,1.64,0,0,1,.69.88,2.46,2.46,0,0,1,2.12-1.2,2.09,2.09,0,0,1,1.57.56,2.39,2.39,0,0,1,.55,1.73v4.7h-1.15v-4.31a3.17,3.17,0,0,0-.11-1,0.91,0.91,0,0,0-.41-0.49,1.28,1.28,0,0,0-.7-0.19,1.62,1.62,0,0,0-1.2.48,2.11,2.11,0,0,0-.48,1.54v4H632.8v-4.44a1.94,1.94,0,0,0-.29-1.17,1.05,1.05,0,0,0-.92-0.38,1.66,1.66,0,0,0-.91.26,1.51,1.51,0,0,0-.6.76,4.41,4.41,0,0,0-.18,1.43v3.54h-1.17Zm10.74,2.62v-9.47h1.06v0.89a2.59,2.59,0,0,1,.84-0.78,2.39,2.39,0,0,1,1.15-.26,2.65,2.65,0,0,1,2.54,1.73,4.53,4.53,0,0,1,.34,1.79,4.64,4.64,0,0,1-.37,1.9,2.85,2.85,0,0,1-2.61,1.73,2.3,2.3,0,0,1-1-.23,2.27,2.27,0,0,1-.74-0.63v3.34h-1.17Zm1.06-6a3,3,0,0,0,.54,2,1.64,1.64,0,0,0,1.29.63,1.68,1.68,0,0,0,1.32-.65,3.13,3.13,0,0,0,.55-2,3,3,0,0,0-.54-2,1.6,1.6,0,0,0-1.28-.66,1.68,1.68,0,0,0-1.32.7A3.1,3.1,0,0,0,640.53,208.83Zm5.68,0a3.54,3.54,0,0,1,1.06-2.82,3.18,3.18,0,0,1,2.14-.76,3.07,3.07,0,0,1,2.31.92,3.52,3.52,0,0,1,.89,2.56,4.49,4.49,0,0,1-.4,2.07,2.76,2.76,0,0,1-1.15,1.18,3.39,3.39,0,0,1-1.65.41,3.09,3.09,0,0,1-2.32-.92A3.69,3.69,0,0,1,646.21,208.79Zm1.2,0a3,3,0,0,0,.56,2,1.92,1.92,0,0,0,2.89,0,3,3,0,0,0,.58-2,2.78,2.78,0,0,0-.58-1.91,1.92,1.92,0,0,0-2.89,0A2.92,2.92,0,0,0,647.41,208.79Zm5.94,1.37,1.14-.18A1.62,1.62,0,0,0,655,211a1.86,1.86,0,0,0,1.24.37,1.84,1.84,0,0,0,1.18-.32,1,1,0,0,0,.38-0.77,0.69,0.69,0,0,0-.34-0.62,4.41,4.41,0,0,0-1.18-.4,10.77,10.77,0,0,1-1.77-.55,1.86,1.86,0,0,1-.74-0.66,1.82,1.82,0,0,1,.52-2.4,2.33,2.33,0,0,1,.74-0.34,3.54,3.54,0,0,1,1-.14,3.87,3.87,0,0,1,1.4.23,1.92,1.92,0,0,1,.91.63,2.39,2.39,0,0,1,.4,1.06l-1.13.15a1.23,1.23,0,0,0-.45-0.82,1.61,1.61,0,0,0-1-.3,1.84,1.84,0,0,0-1.14.27,0.76,0.76,0,0,0-.34.62,0.64,0.64,0,0,0,.14.4,1.08,1.08,0,0,0,.45.32l1,0.29a14.46,14.46,0,0,1,1.72.54,1.67,1.67,0,0,1,.77.62,1.7,1.7,0,0,1,.27,1,1.9,1.9,0,0,1-.34,1.09,2.19,2.19,0,0,1-1,.8,3.59,3.59,0,0,1-1.44.27,3.24,3.24,0,0,1-2-.55A2.59,2.59,0,0,1,653.35,210.16Zm6.91-6.06v-1.33h1.15v1.33h-1.15Zm0,8.11v-6.84h1.15v6.84h-1.15Zm5.39-1,0.16,1a4.11,4.11,0,0,1-.88.11,2,2,0,0,1-1-.21,1.14,1.14,0,0,1-.48-0.52,4.32,4.32,0,0,1-.14-1.37v-3.93h-0.85v-0.91h0.85v-1.69l1.15-.7v2.39h1.17v0.91h-1.17v4a2.34,2.34,0,0,0,.05.65,0.53,0.53,0,0,0,.21.22,0.75,0.75,0,0,0,.38.08A4.18,4.18,0,0,0,665.66,211.18Zm5.72-1.17,1.2,0.14a2.87,2.87,0,0,1-1,1.63,3.19,3.19,0,0,1-2,.58,3.13,3.13,0,0,1-2.38-.92,3.61,3.61,0,0,1-.88-2.6,3.74,3.74,0,0,1,.89-2.67,3,3,0,0,1,2.31-1,2.91,2.91,0,0,1,2.24.93,3.72,3.72,0,0,1,.87,2.62v0.32h-5.11a2.7,2.7,0,0,0,.63,1.73,1.93,1.93,0,0,0,1.44.59,1.8,1.8,0,0,0,1.09-.33A2.25,2.25,0,0,0,671.38,210Zm-3.81-1.88h3.82a2.33,2.33,0,0,0-.44-1.29,1.76,1.76,0,0,0-1.43-.67,1.87,1.87,0,0,0-1.36.54A2.13,2.13,0,0,0,667.57,208.13Z"/>
  <path class="cls-4" d="M353.08,207.74H367.8"/>
  <path class="cls-7" d="M367.8,209.19l4-1.45-4-1.45v2.9Z"/>
  <path class="cls-4" d="M464.72,207.74h14.72"/>
  <path class="cls-7" d="M479.44,209.19l4-1.45-4-1.45v2.9Z"/>
  <path class="cls-4" d="M576.37,207.74h14.72"/>
  <path class="cls-7" d="M591.09,209.19l4-1.45-4-1.45v2.9Z"/>
  <path class="cls-8" d="M135.72,220.09h91.64v65H135.72v-65Z"/>
  <path class="cls-9" d="M135.72,220.09h91.64v65H135.72v-65Z"/>
  <path d="M165.66,253.74l1.25,0.32a4.15,4.15,0,0,1-1.42,2.35,3.86,3.86,0,0,1-2.49.81,4.53,4.53,0,0,1-2.49-.62,3.91,3.91,0,0,1-1.46-1.8,6.51,6.51,0,0,1-.49-2.54,5.56,5.56,0,0,1,.56-2.57,3.83,3.83,0,0,1,1.59-1.66,4.66,4.66,0,0,1,2.29-.58,3.82,3.82,0,0,1,2.38.73,3.71,3.71,0,0,1,1.36,2l-1.24.29a2.88,2.88,0,0,0-1-1.5,2.53,2.53,0,0,0-1.57-.47,3,3,0,0,0-1.81.52,2.8,2.8,0,0,0-1,1.4,5.78,5.78,0,0,0-.29,1.81,5.92,5.92,0,0,0,.34,2.1,2.72,2.72,0,0,0,1.09,1.35,3.1,3.1,0,0,0,1.61.44,2.7,2.7,0,0,0,1.79-.6A3,3,0,0,0,165.66,253.74Zm2.15,0.27,1.18-.1a2.6,2.6,0,0,0,.38,1.15,2.26,2.26,0,0,0,.95.74,3.69,3.69,0,0,0,1.46.27,3.59,3.59,0,0,0,1.26-.21,1.75,1.75,0,0,0,.81-0.59,1.33,1.33,0,0,0,.27-0.81,1.2,1.2,0,0,0-.26-0.77,2,2,0,0,0-.85-0.56q-0.38-.14-1.69-0.45a8.82,8.82,0,0,1-1.81-.59,2.69,2.69,0,0,1-1-.88,2.17,2.17,0,0,1-.33-1.18,2.41,2.41,0,0,1,.4-1.33,2.52,2.52,0,0,1,1.2-.93,4.42,4.42,0,0,1,1.73-.33,4.65,4.65,0,0,1,1.85.34,2.59,2.59,0,0,1,1.22,1,2.88,2.88,0,0,1,.48,1.48l-1.21.1a1.9,1.9,0,0,0-.66-1.35,2.47,2.47,0,0,0-1.63-.47,2.59,2.59,0,0,0-1.65.43,1.23,1.23,0,0,0-.52,1,1.07,1.07,0,0,0,.37.84,4.91,4.91,0,0,0,1.88.67,12,12,0,0,1,2.09.6,2.81,2.81,0,0,1,1.21,1,2.29,2.29,0,0,1,.4,1.33,2.57,2.57,0,0,1-.44,1.43,2.82,2.82,0,0,1-1.24,1,4.25,4.25,0,0,1-1.81.37,5.45,5.45,0,0,1-2.14-.37,3.11,3.11,0,0,1-1.36-1.13A3.22,3.22,0,0,1,167.81,254Zm8.6,0,1.18-.1a2.6,2.6,0,0,0,.38,1.15,2.26,2.26,0,0,0,.95.74,3.69,3.69,0,0,0,1.46.27,3.59,3.59,0,0,0,1.26-.21,1.75,1.75,0,0,0,.81-0.59,1.33,1.33,0,0,0,.27-0.81,1.2,1.2,0,0,0-.26-0.77,2,2,0,0,0-.85-0.56q-0.38-.14-1.69-0.45a8.82,8.82,0,0,1-1.81-.59,2.69,2.69,0,0,1-1-.88,2.17,2.17,0,0,1-.33-1.18,2.41,2.41,0,0,1,.4-1.33,2.52,2.52,0,0,1,1.2-.93,4.42,4.42,0,0,1,1.73-.33,4.65,4.65,0,0,1,1.85.34,2.59,2.59,0,0,1,1.22,1,2.88,2.88,0,0,1,.48,1.48l-1.21.1a1.9,1.9,0,0,0-.66-1.35,2.47,2.47,0,0,0-1.63-.47,2.59,2.59,0,0,0-1.65.43,1.23,1.23,0,0,0-.52,1,1.07,1.07,0,0,0,.37.84,4.91,4.91,0,0,0,1.88.67,12,12,0,0,1,2.09.6,2.81,2.81,0,0,1,1.21,1,2.29,2.29,0,0,1,.4,1.33,2.57,2.57,0,0,1-.44,1.43,2.82,2.82,0,0,1-1.24,1,4.25,4.25,0,0,1-1.81.37,5.45,5.45,0,0,1-2.14-.37,3.11,3.11,0,0,1-1.36-1.13A3.22,3.22,0,0,1,176.4,254Zm8.64-1.57a5.08,5.08,0,0,1,1.26-3.67,4.29,4.29,0,0,1,3.26-1.33,4.47,4.47,0,0,1,2.36.63,4,4,0,0,1,1.59,1.73,5.95,5.95,0,0,1,0,5.11,4,4,0,0,1-1.63,1.72,4.72,4.72,0,0,1-2.29.58,4.5,4.5,0,0,1-2.39-.65,4.23,4.23,0,0,1-1.59-1.76A5.38,5.38,0,0,1,185,252.45Zm1.29,0a3.8,3.8,0,0,0,.92,2.69,3,3,0,0,0,2.31,1,3,3,0,0,0,2.31-1,4,4,0,0,0,.92-2.82,4.69,4.69,0,0,0-.4-2,2.91,2.91,0,0,0-1.14-1.33,3,3,0,0,0-1.68-.48,3.2,3.2,0,0,0-2.29.92A4.07,4.07,0,0,0,186.33,252.48Zm9.08,4.58v-9.44h1.88l2.24,6.68,0.45,1.4q0.15-.51.49-1.51l2.27-6.57h1.68v9.44h-1.21v-7.9l-2.73,7.9h-1.13l-2.73-8v8h-1.21Z"/>
  <path class="cls-10" d="M135.72,32h91.64V84.11c-45.82,0-45.82,19.86-91.64,8.58V32Z"/>
  <path class="cls-4" d="M135.72,32h91.64V84.11c-45.82,0-45.82,19.86-91.64,8.58V32Z"/>
  <path d="M151.84,51.92l1.13-.15a2.46,2.46,0,0,0,.4,1.48,1.28,1.28,0,0,0,1,.4,1.47,1.47,0,0,0,.81-0.22,1.1,1.1,0,0,0,.47-0.59,3.68,3.68,0,0,0,.14-1.18v-6.5H157v6.43a4.72,4.72,0,0,1-.29,1.84,2,2,0,0,1-.91,1,3,3,0,0,1-1.46.34,2.45,2.45,0,0,1-1.9-.71A3,3,0,0,1,151.84,51.92Zm11.39,1.84a4.66,4.66,0,0,1-1.24.77,3.64,3.64,0,0,1-1.28.22A2.49,2.49,0,0,1,159,54.2a1.81,1.81,0,0,1-.6-1.4,1.83,1.83,0,0,1,.82-1.58,2.6,2.6,0,0,1,.84-0.38,6.91,6.91,0,0,1,1-.18,10.3,10.3,0,0,0,2.06-.4q0-.23,0-0.3a1.28,1.28,0,0,0-.33-1,2,2,0,0,0-1.32-.38,2.09,2.09,0,0,0-1.22.29,1.67,1.67,0,0,0-.56,1l-1.14-.15a2.69,2.69,0,0,1,.51-1.17,2.18,2.18,0,0,1,1-.69,4.49,4.49,0,0,1,1.55-.25,4,4,0,0,1,1.42.21,1.88,1.88,0,0,1,.81.52,1.68,1.68,0,0,1,.36.78,7,7,0,0,1,.05,1.07v1.54a17.67,17.67,0,0,0,.07,2,2.8,2.8,0,0,0,.3.82h-1.21A2.5,2.5,0,0,1,163.23,53.76Zm-0.1-2.6a8.32,8.32,0,0,1-1.9.44,5,5,0,0,0-1,.23,1,1,0,0,0-.45.37,1,1,0,0,0-.15.55,1,1,0,0,0,.34.78,1.55,1.55,0,0,0,1,.3,2.43,2.43,0,0,0,1.2-.29,1.87,1.87,0,0,0,.77-0.81,2.86,2.86,0,0,0,.18-1.15V51.16Zm4.71,3.43-2.61-6.84h1.22l1.47,4.09q0.23,0.67.44,1.39,0.15-.55.43-1.31l1.53-4.18h1.2l-2.6,6.84h-1.07Zm9-.84a4.67,4.67,0,0,1-1.24.77,3.64,3.64,0,0,1-1.28.22,2.49,2.49,0,0,1-1.73-.55,1.81,1.81,0,0,1-.6-1.4,1.83,1.83,0,0,1,.82-1.58,2.6,2.6,0,0,1,.84-0.38,6.91,6.91,0,0,1,1-.18,10.3,10.3,0,0,0,2.06-.4q0-.23,0-0.3a1.28,1.28,0,0,0-.33-1,2,2,0,0,0-1.32-.38,2.09,2.09,0,0,0-1.22.29,1.67,1.67,0,0,0-.56,1l-1.14-.15a2.69,2.69,0,0,1,.51-1.17,2.18,2.18,0,0,1,1-.69,4.49,4.49,0,0,1,1.55-.25,4,4,0,0,1,1.42.21,1.88,1.88,0,0,1,.81.52,1.68,1.68,0,0,1,.36.78,7,7,0,0,1,.05,1.07v1.54a17.67,17.67,0,0,0,.07,2,2.8,2.8,0,0,0,.3.82h-1.21A2.5,2.5,0,0,1,176.84,53.76Zm-0.1-2.6a8.32,8.32,0,0,1-1.9.44,5,5,0,0,0-1,.23,1,1,0,0,0-.45.37,1,1,0,0,0-.15.55,1,1,0,0,0,.34.78,1.55,1.55,0,0,0,1,.3,2.43,2.43,0,0,0,1.2-.29,1.87,1.87,0,0,0,.77-0.81,2.86,2.86,0,0,0,.18-1.15V51.16Zm2.52,0.4,1.18-.1a2.6,2.6,0,0,0,.38,1.15,2.26,2.26,0,0,0,.95.74,3.69,3.69,0,0,0,1.46.27,3.59,3.59,0,0,0,1.26-.21,1.75,1.75,0,0,0,.81-0.59,1.33,1.33,0,0,0,.27-0.81,1.2,1.2,0,0,0-.26-0.77,2,2,0,0,0-.85-0.56q-0.38-.14-1.69-0.45a8.81,8.81,0,0,1-1.81-.59,2.69,2.69,0,0,1-1-.88,2.17,2.17,0,0,1-.33-1.18,2.41,2.41,0,0,1,.4-1.33,2.52,2.52,0,0,1,1.2-.93A4.42,4.42,0,0,1,183,45a4.65,4.65,0,0,1,1.85.34,2.59,2.59,0,0,1,1.22,1,2.88,2.88,0,0,1,.48,1.48l-1.21.1a1.9,1.9,0,0,0-.66-1.35,2.47,2.47,0,0,0-1.63-.47,2.59,2.59,0,0,0-1.65.43,1.23,1.23,0,0,0-.52,1,1.07,1.07,0,0,0,.37.84,4.91,4.91,0,0,0,1.88.67,12,12,0,0,1,2.09.6,2.81,2.81,0,0,1,1.21,1,2.29,2.29,0,0,1,.4,1.33,2.57,2.57,0,0,1-.44,1.43,2.82,2.82,0,0,1-1.24,1,4.25,4.25,0,0,1-1.81.37,5.45,5.45,0,0,1-2.14-.37,3.11,3.11,0,0,1-1.36-1.13A3.22,3.22,0,0,1,179.27,51.56Zm13.34,0.54,1.14,0.14a2.92,2.92,0,0,1-1,1.85,2.79,2.79,0,0,1-1.88.66,3,3,0,0,1-2.25-.91,3.74,3.74,0,0,1-.85-2.64,4.84,4.84,0,0,1,.36-1.94A2.57,2.57,0,0,1,189.27,48a3.36,3.36,0,0,1,1.63-.41,2.86,2.86,0,0,1,1.83.56,2.54,2.54,0,0,1,.91,1.59l-1.13.18a1.86,1.86,0,0,0-.58-1,1.41,1.41,0,0,0-1-.36,1.8,1.8,0,0,0-1.43.63,3,3,0,0,0-.55,2,3.13,3.13,0,0,0,.52,2,1.75,1.75,0,0,0,1.39.62,1.63,1.63,0,0,0,1.14-.41A2.13,2.13,0,0,0,192.61,52.1Zm2,2.5V47.76h1v1a2.8,2.8,0,0,1,.74-1,1.29,1.29,0,0,1,.74-0.23,2.27,2.27,0,0,1,1.2.37L197.9,49A1.68,1.68,0,0,0,197,48.8a1.09,1.09,0,0,0-.69.23,1.17,1.17,0,0,0-.43.63,4.51,4.51,0,0,0-.19,1.35V54.6h-1.17Zm4.32-8.11V45.16H200v1.33h-1.15Zm0,8.11V47.76H200V54.6h-1.15Zm2.85,2.62V47.76h1.06v0.89a2.59,2.59,0,0,1,.84-0.78,2.39,2.39,0,0,1,1.15-.26,2.65,2.65,0,0,1,2.54,1.73,4.53,4.53,0,0,1,.34,1.79,4.64,4.64,0,0,1-.37,1.9,2.85,2.85,0,0,1-2.61,1.73,2.3,2.3,0,0,1-1-.23,2.27,2.27,0,0,1-.74-0.63v3.34h-1.17Zm1.06-6a3,3,0,0,0,.54,2,1.64,1.64,0,0,0,1.29.63,1.68,1.68,0,0,0,1.32-.65,3.13,3.13,0,0,0,.55-2,3,3,0,0,0-.54-2,1.6,1.6,0,0,0-1.28-.66,1.68,1.68,0,0,0-1.32.7A3.1,3.1,0,0,0,202.8,51.22Zm8.65,2.35,0.16,1a4.11,4.11,0,0,1-.88.11,2,2,0,0,1-1-.21,1.14,1.14,0,0,1-.48-0.52,4.32,4.32,0,0,1-.14-1.37V48.66h-0.85V47.76h0.85V46.07l1.15-.7v2.39h1.17v0.91h-1.17v4a2.35,2.35,0,0,0,.05.65,0.53,0.53,0,0,0,.21.22,0.75,0.75,0,0,0,.38.08A4.19,4.19,0,0,0,211.45,53.57Z"/>
  <path d="M163.94,70.43V61h3.56a9.43,9.43,0,0,1,1.44.08,2.85,2.85,0,0,1,1.15.45,2.22,2.22,0,0,1,.77.91,2.85,2.85,0,0,1,.29,1.29,2.9,2.9,0,0,1-.77,2,3.68,3.68,0,0,1-2.78.84h-2.42v3.83h-1.25Zm1.25-4.95h2.45a2.57,2.57,0,0,0,1.72-.45,1.62,1.62,0,0,0,.51-1.28,1.65,1.65,0,0,0-.3-1,1.42,1.42,0,0,0-.78-0.56,5.44,5.44,0,0,0-1.17-.08h-2.42v3.38ZM172,67A3.54,3.54,0,0,1,173,64.19a3.18,3.18,0,0,1,2.14-.76,3.07,3.07,0,0,1,2.31.92,3.52,3.52,0,0,1,.89,2.56A4.49,4.49,0,0,1,178,69a2.76,2.76,0,0,1-1.15,1.18,3.39,3.39,0,0,1-1.65.41,3.09,3.09,0,0,1-2.32-.92A3.69,3.69,0,0,1,172,67Zm1.2,0a3,3,0,0,0,.56,2,1.92,1.92,0,0,0,2.89,0,3,3,0,0,0,.58-2,2.78,2.78,0,0,0-.58-1.91,1.92,1.92,0,0,0-2.89,0A2.92,2.92,0,0,0,173.15,67Zm6.37,3.42V61h1.17v9.44h-1.17Zm2.85,2.64L182.23,72a2.79,2.79,0,0,0,.66.1,1.17,1.17,0,0,0,.62-0.14,1,1,0,0,0,.38-0.36,5.21,5.21,0,0,0,.36-0.85l0.1-.29-2.6-6.86H183l1.43,4q0.27,0.76.49,1.59,0.21-.8.48-1.57l1.46-4H188l-2.61,7a13,13,0,0,1-.65,1.55,2.28,2.28,0,0,1-.71.84,1.63,1.63,0,0,1-.95.27A2.37,2.37,0,0,1,182.37,73.06Zm6.76-2.64V64.49h-1V63.58h1V62.86a3.1,3.1,0,0,1,.12-1,1.53,1.53,0,0,1,.59-0.73,2.09,2.09,0,0,1,1.18-.29,5.33,5.33,0,0,1,1.09.12l-0.18,1a3.57,3.57,0,0,0-.67-0.07,1,1,0,0,0-.76.23,1.2,1.2,0,0,0-.22.84v0.63h1.33v0.91h-1.33v5.94h-1.15Zm3.32-8.11V61h1.15v1.33h-1.15Zm0,8.11V63.58h1.15v6.84h-1.15Zm2.82,0V61h1.17v9.44h-1.17Zm2.86,0V61h1.17v9.44h-1.17Z"/>
  <path class="cls-9" d="M181.54,98v33.32"/>
  <path class="cls-7" d="M183,98l-1.45-4-1.45,4H183Z"/>
  <path class="cls-7" d="M180.09,131.28l1.45,4,1.45-4h-2.9Z"/>
  <path class="cls-11" d="M688,207.74h22V10H181.54V32"/>
  <path class="cls-9" d="M688,207.74h22V10H181.54V26.71"/>
  <path class="cls-7" d="M180.08,26.71l1.45,4,1.45-4h-2.9Z"/>
  <path class="cls-12" d="M101.64,207.74h17V169.05h17"/>
  <path class="cls-4" d="M101.64,207.74h17V169.05h11.75"/>
  <path class="cls-7" d="M130.43,170.5l4-1.45-4-1.45v2.9Z"/>
  <path class="cls-12" d="M101.64,207.74h17v44.84h17"/>
  <path class="cls-4" d="M101.64,207.74h17v44.84h11.75"/>
  <path class="cls-7" d="M130.43,254l4-1.45-4-1.45V254Z"/>
  <path class="cls-12" d="M227.36,169.05h17v38.69h17"/>
  <path class="cls-4" d="M227.36,169.05h17v38.69h11.75"/>
  <path class="cls-7" d="M256.15,209.19l4-1.45-4-1.45v2.9Z"/>
  <path class="cls-12" d="M227.36,252.59h17V207.75h17"/>
  <path class="cls-4" d="M227.36,252.59h17V207.75h11.75"/>
  <path class="cls-7" d="M256.15,209.2l4-1.45-4-1.45v2.9Z"/>
  <path class="cls-3" d="M90.44,313.29h20v20h-20v-20Z"/>
  <path class="cls-4" d="M90.44,313.29h20v20h-20v-20Z"/>
  <path class="cls-12" d="M112.65,308.34H271.51v29.91H112.65V308.34Z"/>
  <path d="M121.5,327.5v-8.19H127v1h-4.44v2.53h3.85v1h-3.85v3.72H121.5Zm10.87,0v-0.87a2.19,2.19,0,0,1-1.88,1,2.42,2.42,0,0,1-1-.21,1.65,1.65,0,0,1-.67-0.51,1.81,1.81,0,0,1-.3-0.74,4.48,4.48,0,0,1-.07-0.93v-3.67h1v3.28a5.24,5.24,0,0,0,.07,1.06,1.1,1.1,0,0,0,.4.63,1.25,1.25,0,0,0,.76.22,1.66,1.66,0,0,0,.85-0.23,1.3,1.3,0,0,0,.56-0.63,3.14,3.14,0,0,0,.16-1.15v-3.17h1v5.92h-0.89Zm2.6,0v-8.19h1v8.19h-1Zm2.6,0v-8.19h1v8.19h-1Zm5.46-2.32,1-.14a2.21,2.21,0,0,0,.34,1.29,1.14,1.14,0,0,0,.88.34,1.28,1.28,0,0,0,.69-0.18,1,1,0,0,0,.41-0.51,3.15,3.15,0,0,0,.12-1v-5.65h1.07v5.58a4.09,4.09,0,0,1-.25,1.59,1.8,1.8,0,0,1-.78.87,2.63,2.63,0,0,1-1.26.29,2.14,2.14,0,0,1-1.65-.62A2.52,2.52,0,0,1,143,325.18Zm10.15,1.59a3.89,3.89,0,0,1-1.07.67,3.08,3.08,0,0,1-1.1.19,2.15,2.15,0,0,1-1.51-.48,1.59,1.59,0,0,1-.52-1.22,1.63,1.63,0,0,1,.19-0.78,1.73,1.73,0,0,1,.52-0.59,2.5,2.5,0,0,1,.73-0.33q0.29-.07.89-0.15a8.63,8.63,0,0,0,1.79-.34q0-.21,0-0.26a1.09,1.09,0,0,0-.29-0.87,1.66,1.66,0,0,0-1.14-.34,1.82,1.82,0,0,0-1.06.25,1.55,1.55,0,0,0-.49.88l-1-.12a2.35,2.35,0,0,1,.43-1,1.94,1.94,0,0,1,.89-0.6,4.08,4.08,0,0,1,1.35-.21,3.53,3.53,0,0,1,1.24.18,1.43,1.43,0,0,1,1,1.13,7,7,0,0,1,0,.93V325a13.29,13.29,0,0,0,.07,1.77,2.55,2.55,0,0,0,.25.71h-1A2.42,2.42,0,0,1,153.18,326.78Zm-0.08-2.25a6.82,6.82,0,0,1-1.63.38,4.15,4.15,0,0,0-.88.21,0.84,0.84,0,0,0-.4.33,0.82,0.82,0,0,0-.14.47,0.88,0.88,0,0,0,.3.67,1.33,1.33,0,0,0,.89.26,2.12,2.12,0,0,0,1-.25,1.65,1.65,0,0,0,.67-0.7,2.53,2.53,0,0,0,.15-1v-0.37Zm4.39,3-2.25-5.92h1.06l1.26,3.54q0.21,0.58.38,1.2,0.14-.47.37-1.13l1.32-3.61h1l-2.24,5.92h-0.93Zm8.07-.73a3.89,3.89,0,0,1-1.07.67,3.08,3.08,0,0,1-1.1.19,2.15,2.15,0,0,1-1.51-.48,1.59,1.59,0,0,1-.52-1.22,1.63,1.63,0,0,1,.19-0.78,1.73,1.73,0,0,1,.52-0.59,2.5,2.5,0,0,1,.73-0.33q0.29-.07.89-0.15a8.63,8.63,0,0,0,1.79-.34q0-.21,0-0.26a1.09,1.09,0,0,0-.29-0.87,1.66,1.66,0,0,0-1.14-.34,1.82,1.82,0,0,0-1.06.25,1.55,1.55,0,0,0-.49.88l-1-.12a2.35,2.35,0,0,1,.43-1,1.94,1.94,0,0,1,.89-0.6,4.08,4.08,0,0,1,1.35-.21,3.53,3.53,0,0,1,1.24.18,1.43,1.43,0,0,1,1,1.13,7,7,0,0,1,0,.93V325a13.29,13.29,0,0,0,.07,1.77,2.55,2.55,0,0,0,.25.71h-1A2.42,2.42,0,0,1,165.56,326.78Zm-0.08-2.25a6.82,6.82,0,0,1-1.63.38,4.15,4.15,0,0,0-.88.21,0.84,0.84,0,0,0-.4.33,0.82,0.82,0,0,0-.14.47,0.88,0.88,0,0,0,.3.67,1.33,1.33,0,0,0,.89.26,2.12,2.12,0,0,0,1-.25,1.65,1.65,0,0,0,.67-0.7,2.53,2.53,0,0,0,.15-1v-0.37Zm2.49,0.36,1-.1a2.3,2.3,0,0,0,.33,1,2,2,0,0,0,.82.63,3.27,3.27,0,0,0,1.26.23,3,3,0,0,0,1.09-.18,1.51,1.51,0,0,0,.71-0.49,1.21,1.21,0,0,0,.23-0.71,1,1,0,0,0-.23-0.67,1.6,1.6,0,0,0-.73-0.48q-0.33-.12-1.46-0.4a8,8,0,0,1-1.58-.51,2.19,2.19,0,0,1-.88-0.76,1.92,1.92,0,0,1-.29-1,2.1,2.1,0,0,1,.34-1.15,2.19,2.19,0,0,1,1-.81,3.86,3.86,0,0,1,1.51-.29,3.93,3.93,0,0,1,1.59.3,2.25,2.25,0,0,1,1.07.87,2.38,2.38,0,0,1,.41,1.28l-1,.08a1.64,1.64,0,0,0-.56-1.17,2.2,2.2,0,0,0-1.43-.4,2.31,2.31,0,0,0-1.43.36,1.07,1.07,0,0,0-.45.87,0.94,0.94,0,0,0,.32.73,4.31,4.31,0,0,0,1.63.59,10.84,10.84,0,0,1,1.81.51,2.39,2.39,0,0,1,1,.84,2,2,0,0,1,.34,1.17,2.22,2.22,0,0,1-.37,1.22,2.5,2.5,0,0,1-1.07.91,3.8,3.8,0,0,1-1.58.32,4.86,4.86,0,0,1-1.87-.32,2.66,2.66,0,0,1-1.17-1A2.84,2.84,0,0,1,168,324.88Zm11.92,0.45,1,0.12a2.51,2.51,0,0,1-.82,1.61,2.43,2.43,0,0,1-1.63.58,2.56,2.56,0,0,1-2-.8,3.26,3.26,0,0,1-.73-2.28,4.11,4.11,0,0,1,.32-1.68,2.19,2.19,0,0,1,1-1.09,2.87,2.87,0,0,1,1.42-.36,2.45,2.45,0,0,1,1.58.49,2.16,2.16,0,0,1,.78,1.37l-1,.15a1.6,1.6,0,0,0-.49-0.89,1.24,1.24,0,0,0-.85-0.3,1.57,1.57,0,0,0-1.24.55,2.58,2.58,0,0,0-.47,1.72,2.73,2.73,0,0,0,.45,1.74,1.49,1.49,0,0,0,1.2.54,1.43,1.43,0,0,0,1-.36A1.79,1.79,0,0,0,179.89,325.33Zm2,2.17v-5.92h0.91v0.89a2.36,2.36,0,0,1,.63-0.82,1.13,1.13,0,0,1,.65-0.21,2,2,0,0,1,1,.32l-0.34.93a1.42,1.42,0,0,0-.73-0.22,1,1,0,0,0-.6.21,1,1,0,0,0-.37.55,4,4,0,0,0-.16,1.17v3.11h-1Zm3.92-7v-1.17h1v1.17h-1Zm0,7v-5.92h1v5.92h-1Zm2.6,2.27v-8.19h0.91v0.77a2.27,2.27,0,0,1,.73-0.67,2,2,0,0,1,1-.23,2.29,2.29,0,0,1,1.33.4,2.32,2.32,0,0,1,.87,1.1,3.88,3.88,0,0,1,.3,1.55,3.92,3.92,0,0,1-.33,1.63,2.46,2.46,0,0,1-2.25,1.51,1.91,1.91,0,0,1-.89-0.21,2.16,2.16,0,0,1-.66-0.55v2.89h-1Zm0.91-5.19a2.57,2.57,0,0,0,.47,1.69,1.42,1.42,0,0,0,1.11.55,1.47,1.47,0,0,0,1.15-.56,2.71,2.71,0,0,0,.48-1.76,2.63,2.63,0,0,0-.47-1.7,1.4,1.4,0,0,0-1.11-.56,1.45,1.45,0,0,0-1.14.6A2.66,2.66,0,0,0,189.31,324.58Zm7.81,2,0.14,0.88a3.48,3.48,0,0,1-.76.1,1.68,1.68,0,0,1-.85-0.18,1,1,0,0,1-.43-0.45,3.59,3.59,0,0,1-.12-1.18v-3.42h-0.73v-0.77h0.73v-1.47l1-.6v2.07h1v0.77h-1v3.48a1.68,1.68,0,0,0,.05.55,0.42,0.42,0,0,0,.16.19,0.71,0.71,0,0,0,.34.07Zm3.54,0.89,3.15-8.19H205l3.35,8.19h-1.24L206.13,325h-3.42l-0.91,2.47h-1.14Zm2.36-3.37h2.78l-0.87-2.27q-0.38-1-.58-1.69a10,10,0,0,1-.44,1.57Zm10.08,1.2,1,0.12a2.51,2.51,0,0,1-.82,1.61,2.43,2.43,0,0,1-1.63.58,2.56,2.56,0,0,1-2-.8,3.26,3.26,0,0,1-.73-2.28,4.11,4.11,0,0,1,.32-1.68,2.19,2.19,0,0,1,1-1.09,2.87,2.87,0,0,1,1.42-.36,2.45,2.45,0,0,1,1.58.49,2.16,2.16,0,0,1,.78,1.37l-1,.15a1.6,1.6,0,0,0-.49-0.89,1.24,1.24,0,0,0-.85-0.3,1.57,1.57,0,0,0-1.24.55,2.58,2.58,0,0,0-.47,1.72,2.73,2.73,0,0,0,.45,1.74,1.49,1.49,0,0,0,1.2.54,1.43,1.43,0,0,0,1-.36A1.79,1.79,0,0,0,213.11,325.33Zm5.86,0,1,0.12a2.51,2.51,0,0,1-.82,1.61,2.43,2.43,0,0,1-1.63.58,2.56,2.56,0,0,1-2-.8,3.26,3.26,0,0,1-.73-2.28,4.11,4.11,0,0,1,.32-1.68,2.19,2.19,0,0,1,1-1.09,2.87,2.87,0,0,1,1.42-.36,2.45,2.45,0,0,1,1.58.49,2.16,2.16,0,0,1,.78,1.37l-1,.15a1.6,1.6,0,0,0-.49-0.89,1.24,1.24,0,0,0-.85-0.3,1.57,1.57,0,0,0-1.24.55,2.58,2.58,0,0,0-.47,1.72,2.73,2.73,0,0,0,.45,1.74,1.49,1.49,0,0,0,1.2.54,1.43,1.43,0,0,0,1-.36A1.79,1.79,0,0,0,219,325.33Zm6.05,0.26,1,0.12a2.56,2.56,0,0,1-.92,1.43,3.11,3.11,0,0,1-3.76-.3,3.18,3.18,0,0,1-.76-2.25,3.27,3.27,0,0,1,.77-2.32,2.64,2.64,0,0,1,2-.82,2.5,2.5,0,0,1,1.94.81,3.2,3.2,0,0,1,.76,2.27v0.27h-4.42a2.29,2.29,0,0,0,.55,1.5,1.63,1.63,0,0,0,1.24.52,1.54,1.54,0,0,0,.95-0.29A1.93,1.93,0,0,0,225,325.59Zm-3.3-1.62H225a2,2,0,0,0-.38-1.13,1.54,1.54,0,0,0-1.24-.58,1.58,1.58,0,0,0-1.17.47A1.83,1.83,0,0,0,221.72,324Zm5.36,1.76,1-.15a1.42,1.42,0,0,0,.47.92,1.64,1.64,0,0,0,1.07.32,1.57,1.57,0,0,0,1-.27,0.86,0.86,0,0,0,.34-0.67,0.6,0.6,0,0,0-.3-0.54,4.19,4.19,0,0,0-1-.34,9,9,0,0,1-1.53-.48,1.52,1.52,0,0,1-.69-2.09,1.54,1.54,0,0,1,.49-0.56,1.84,1.84,0,0,1,.63-0.29,3,3,0,0,1,.88-0.12,3.28,3.28,0,0,1,1.21.21,1.59,1.59,0,0,1,.78.54,2.06,2.06,0,0,1,.36.92l-1,.14a1.06,1.06,0,0,0-.38-0.71,1.39,1.39,0,0,0-.91-0.26,1.64,1.64,0,0,0-1,.23,0.65,0.65,0,0,0-.3.54,0.53,0.53,0,0,0,.12.34,0.91,0.91,0,0,0,.38.27l0.89,0.25a12.41,12.41,0,0,1,1.48.47,1.46,1.46,0,0,1,.91,1.39,1.64,1.64,0,0,1-.3.95,1.91,1.91,0,0,1-.84.69,3,3,0,0,1-1.25.25,2.77,2.77,0,0,1-1.76-.48A2.23,2.23,0,0,1,227.08,325.73Zm5.86,0,1-.15a1.42,1.42,0,0,0,.47.92,1.64,1.64,0,0,0,1.07.32,1.57,1.57,0,0,0,1-.27,0.86,0.86,0,0,0,.34-0.67,0.6,0.6,0,0,0-.3-0.54,4.19,4.19,0,0,0-1-.34,9,9,0,0,1-1.53-.48,1.52,1.52,0,0,1-.69-2.09,1.54,1.54,0,0,1,.49-0.56,1.84,1.84,0,0,1,.63-0.29,3,3,0,0,1,.88-0.12,3.28,3.28,0,0,1,1.21.21,1.59,1.59,0,0,1,.78.54,2.06,2.06,0,0,1,.36.92l-1,.14a1.06,1.06,0,0,0-.38-0.71,1.39,1.39,0,0,0-.91-0.26,1.64,1.64,0,0,0-1,.23,0.65,0.65,0,0,0-.3.54,0.53,0.53,0,0,0,.12.34,0.91,0.91,0,0,0,.38.27l0.89,0.25a12.41,12.41,0,0,1,1.48.47,1.46,1.46,0,0,1,.91,1.39,1.64,1.64,0,0,1-.3.95,1.91,1.91,0,0,1-.84.69,3,3,0,0,1-1.25.25,2.77,2.77,0,0,1-1.76-.48A2.23,2.23,0,0,1,232.94,325.73Z"/>
  <path class="cls-8" d="M269,313.29h20v20H269v-20Z"/>
  <path class="cls-9" d="M269,313.29h20v20H269v-20Z"/>
  <path class="cls-12" d="M291.23,308.34H450.09v29.91H291.23V308.34Z"/>
  <path d="M300,327.5v-8.19h3.09a7,7,0,0,1,1.24.08,2.41,2.41,0,0,1,1,.38,1.93,1.93,0,0,1,.66.78,2.68,2.68,0,0,1-.43,2.9,3.19,3.19,0,0,1-2.39.71h-2.1v3.32H300Zm1.09-4.29h2.12a2.25,2.25,0,0,0,1.48-.38,1.4,1.4,0,0,0,.45-1.11,1.43,1.43,0,0,0-.26-0.87,1.24,1.24,0,0,0-.69-0.49,4.94,4.94,0,0,0-1-.07h-2.09v2.93Zm10.47,3.56a3.89,3.89,0,0,1-1.07.67,3.08,3.08,0,0,1-1.1.19,2.15,2.15,0,0,1-1.51-.48,1.59,1.59,0,0,1-.52-1.22,1.63,1.63,0,0,1,.19-0.78,1.73,1.73,0,0,1,.52-0.59,2.5,2.5,0,0,1,.73-0.33q0.29-.07.89-0.15a8.63,8.63,0,0,0,1.79-.34q0-.21,0-0.26a1.09,1.09,0,0,0-.29-0.87,1.66,1.66,0,0,0-1.14-.34,1.82,1.82,0,0,0-1.06.25,1.55,1.55,0,0,0-.49.88l-1-.12a2.35,2.35,0,0,1,.43-1,1.94,1.94,0,0,1,.89-0.6,4.08,4.08,0,0,1,1.35-.21,3.53,3.53,0,0,1,1.24.18,1.43,1.43,0,0,1,1,1.13,7,7,0,0,1,0,.93V325a13.29,13.29,0,0,0,.07,1.77,2.55,2.55,0,0,0,.25.71h-1A2.42,2.42,0,0,1,311.58,326.78Zm-0.08-2.25a6.82,6.82,0,0,1-1.63.38,4.15,4.15,0,0,0-.88.21,0.84,0.84,0,0,0-.4.33,0.82,0.82,0,0,0-.14.47,0.88,0.88,0,0,0,.3.67,1.33,1.33,0,0,0,.89.26,2.12,2.12,0,0,0,1-.25,1.65,1.65,0,0,0,.67-0.7,2.53,2.53,0,0,0,.15-1v-0.37Zm2.73,3v-5.92h0.91v0.89a2.36,2.36,0,0,1,.63-0.82,1.13,1.13,0,0,1,.65-0.21,2,2,0,0,1,1,.32l-0.34.93a1.42,1.42,0,0,0-.73-0.22,1,1,0,0,0-.6.21,1,1,0,0,0-.37.55,4,4,0,0,0-.16,1.17v3.11h-1Zm6.11-.89,0.14,0.88a3.48,3.48,0,0,1-.76.1,1.68,1.68,0,0,1-.85-0.18,1,1,0,0,1-.43-0.45,3.59,3.59,0,0,1-.12-1.18v-3.42h-0.73v-0.77h0.73v-1.47l1-.6v2.07h1v0.77h-1v3.48a1.68,1.68,0,0,0,.05.55,0.42,0.42,0,0,0,.16.19,0.71,0.71,0,0,0,.34.07Zm1.06-6.13v-1.17h1v1.17h-1Zm0,7v-5.92h1v5.92h-1Zm6.46-.73a3.89,3.89,0,0,1-1.07.67,3.08,3.08,0,0,1-1.1.19,2.15,2.15,0,0,1-1.51-.48,1.59,1.59,0,0,1-.52-1.22,1.63,1.63,0,0,1,.19-0.78,1.73,1.73,0,0,1,.52-0.59,2.5,2.5,0,0,1,.73-0.33q0.29-.07.89-0.15a8.63,8.63,0,0,0,1.79-.34q0-.21,0-0.26a1.09,1.09,0,0,0-.29-0.87,1.66,1.66,0,0,0-1.14-.34,1.82,1.82,0,0,0-1.06.25,1.55,1.55,0,0,0-.49.88l-1-.12a2.35,2.35,0,0,1,.43-1,1.94,1.94,0,0,1,.89-0.6,4.08,4.08,0,0,1,1.35-.21,3.53,3.53,0,0,1,1.24.18,1.43,1.43,0,0,1,1,1.13,7,7,0,0,1,0,.93V325a13.3,13.3,0,0,0,.07,1.77,2.55,2.55,0,0,0,.25.71h-1A2.42,2.42,0,0,1,327.86,326.78Zm-0.08-2.25a6.82,6.82,0,0,1-1.63.38,4.15,4.15,0,0,0-.88.21,0.84,0.84,0,0,0-.4.33,0.82,0.82,0,0,0-.14.47,0.88,0.88,0,0,0,.3.67,1.33,1.33,0,0,0,.89.26,2.12,2.12,0,0,0,1-.25,1.65,1.65,0,0,0,.67-0.7,2.53,2.53,0,0,0,.15-1v-0.37Zm2.71,3v-8.19h1v8.19h-1Zm5.46-2.32,1-.14a2.21,2.21,0,0,0,.34,1.29,1.14,1.14,0,0,0,.88.34,1.28,1.28,0,0,0,.69-0.18,1,1,0,0,0,.41-0.51,3.15,3.15,0,0,0,.12-1v-5.65h1.07v5.58a4.08,4.08,0,0,1-.25,1.59,1.8,1.8,0,0,1-.78.87,2.63,2.63,0,0,1-1.26.29,2.14,2.14,0,0,1-1.65-.62A2.52,2.52,0,0,1,336,325.18Zm10.15,1.59a3.89,3.89,0,0,1-1.07.67,3.08,3.08,0,0,1-1.1.19,2.15,2.15,0,0,1-1.51-.48,1.59,1.59,0,0,1-.52-1.22,1.63,1.63,0,0,1,.19-0.78,1.73,1.73,0,0,1,.52-0.59,2.5,2.5,0,0,1,.73-0.33q0.29-.07.89-0.15a8.63,8.63,0,0,0,1.79-.34q0-.21,0-0.26a1.09,1.09,0,0,0-.29-0.87,1.66,1.66,0,0,0-1.14-.34,1.82,1.82,0,0,0-1.06.25,1.55,1.55,0,0,0-.49.88l-1-.12a2.36,2.36,0,0,1,.43-1,1.94,1.94,0,0,1,.89-0.6,4.08,4.08,0,0,1,1.35-.21,3.53,3.53,0,0,1,1.24.18,1.43,1.43,0,0,1,1,1.13,7,7,0,0,1,0,.93V325a13.3,13.3,0,0,0,.07,1.77,2.55,2.55,0,0,0,.25.71h-1A2.42,2.42,0,0,1,346.1,326.78ZM346,324.52a6.82,6.82,0,0,1-1.63.38,4.15,4.15,0,0,0-.88.21,0.84,0.84,0,0,0-.4.33,0.82,0.82,0,0,0-.14.47,0.88,0.88,0,0,0,.3.67,1.33,1.33,0,0,0,.89.26,2.12,2.12,0,0,0,1-.25,1.65,1.65,0,0,0,.67-0.7,2.53,2.53,0,0,0,.15-1v-0.37Zm4.39,3-2.25-5.92h1.06l1.26,3.54q0.21,0.58.38,1.2,0.14-.47.37-1.13l1.32-3.61h1l-2.24,5.92H350.4Zm8.07-.73a3.89,3.89,0,0,1-1.07.67,3.08,3.08,0,0,1-1.1.19,2.15,2.15,0,0,1-1.51-.48,1.59,1.59,0,0,1-.52-1.22,1.62,1.62,0,0,1,.19-0.78,1.72,1.72,0,0,1,.52-0.59,2.5,2.5,0,0,1,.73-0.33q0.29-.07.89-0.15a8.63,8.63,0,0,0,1.79-.34q0-.21,0-0.26a1.09,1.09,0,0,0-.29-0.87,1.66,1.66,0,0,0-1.14-.34,1.82,1.82,0,0,0-1.06.25,1.55,1.55,0,0,0-.49.88l-1-.12a2.35,2.35,0,0,1,.43-1,1.94,1.94,0,0,1,.89-0.6,4.08,4.08,0,0,1,1.35-.21,3.53,3.53,0,0,1,1.24.18,1.43,1.43,0,0,1,1,1.13,7,7,0,0,1,0,.93V325a13.29,13.29,0,0,0,.07,1.77,2.55,2.55,0,0,0,.25.71h-1A2.42,2.42,0,0,1,358.48,326.78Zm-0.08-2.25a6.82,6.82,0,0,1-1.63.38,4.15,4.15,0,0,0-.88.21,0.84,0.84,0,0,0-.4.33,0.82,0.82,0,0,0-.14.47,0.87,0.87,0,0,0,.3.67,1.33,1.33,0,0,0,.89.26,2.12,2.12,0,0,0,1-.25,1.65,1.65,0,0,0,.67-0.7,2.53,2.53,0,0,0,.15-1v-0.37Zm2.49,0.36,1-.1a2.3,2.3,0,0,0,.33,1,2,2,0,0,0,.82.63,3.27,3.27,0,0,0,1.26.23,3,3,0,0,0,1.09-.18,1.51,1.51,0,0,0,.71-0.49,1.21,1.21,0,0,0,.23-0.71,1,1,0,0,0-.23-0.67,1.6,1.6,0,0,0-.73-0.48q-0.33-.12-1.46-0.4a8,8,0,0,1-1.58-.51,2.19,2.19,0,0,1-.88-0.76,1.92,1.92,0,0,1-.29-1,2.1,2.1,0,0,1,.34-1.15,2.19,2.19,0,0,1,1-.81,3.86,3.86,0,0,1,1.51-.29,3.93,3.93,0,0,1,1.59.3,2.25,2.25,0,0,1,1.07.87,2.38,2.38,0,0,1,.41,1.28l-1,.08a1.64,1.64,0,0,0-.56-1.17,2.2,2.2,0,0,0-1.43-.4,2.31,2.31,0,0,0-1.43.36,1.07,1.07,0,0,0-.45.87,0.94,0.94,0,0,0,.32.73,4.31,4.31,0,0,0,1.63.59,10.84,10.84,0,0,1,1.81.51,2.39,2.39,0,0,1,1,.84,2,2,0,0,1,.34,1.17,2.22,2.22,0,0,1-.37,1.22,2.5,2.5,0,0,1-1.07.91,3.8,3.8,0,0,1-1.58.32,4.86,4.86,0,0,1-1.87-.32,2.66,2.66,0,0,1-1.17-1A2.84,2.84,0,0,1,360.89,324.88Zm11.92,0.45,1,0.12a2.51,2.51,0,0,1-.82,1.61,2.43,2.43,0,0,1-1.63.58,2.56,2.56,0,0,1-2-.8,3.26,3.26,0,0,1-.73-2.28,4.12,4.12,0,0,1,.32-1.68,2.19,2.19,0,0,1,1-1.09,2.87,2.87,0,0,1,1.42-.36,2.45,2.45,0,0,1,1.58.49,2.16,2.16,0,0,1,.78,1.37l-1,.15a1.6,1.6,0,0,0-.49-0.89,1.24,1.24,0,0,0-.85-0.3,1.57,1.57,0,0,0-1.24.55,2.58,2.58,0,0,0-.47,1.72,2.73,2.73,0,0,0,.45,1.74,1.49,1.49,0,0,0,1.2.54,1.43,1.43,0,0,0,1-.36A1.79,1.79,0,0,0,372.81,325.33Zm2,2.17v-5.92h0.91v0.89a2.36,2.36,0,0,1,.63-0.82,1.13,1.13,0,0,1,.65-0.21,2,2,0,0,1,1,.32l-0.34.93a1.42,1.42,0,0,0-.73-0.22,1,1,0,0,0-.6.21,1,1,0,0,0-.37.55,4,4,0,0,0-.16,1.17v3.11h-1Zm3.92-7v-1.17h1v1.17h-1Zm0,7v-5.92h1v5.92h-1Zm2.6,2.27v-8.19h0.91v0.77a2.27,2.27,0,0,1,.73-0.67,2,2,0,0,1,1-.23,2.29,2.29,0,0,1,1.33.4,2.32,2.32,0,0,1,.87,1.1,3.88,3.88,0,0,1,.3,1.55,3.92,3.92,0,0,1-.33,1.63,2.46,2.46,0,0,1-2.25,1.51,1.91,1.91,0,0,1-.89-0.21,2.16,2.16,0,0,1-.66-0.55v2.89h-1Zm0.91-5.19a2.57,2.57,0,0,0,.47,1.69,1.42,1.42,0,0,0,1.11.55,1.47,1.47,0,0,0,1.15-.56,2.71,2.71,0,0,0,.48-1.76,2.63,2.63,0,0,0-.47-1.7,1.4,1.4,0,0,0-1.11-.56,1.45,1.45,0,0,0-1.14.6A2.66,2.66,0,0,0,382.22,324.58Zm7.81,2,0.14,0.88a3.48,3.48,0,0,1-.76.1,1.68,1.68,0,0,1-.85-0.18,1,1,0,0,1-.43-0.45,3.59,3.59,0,0,1-.12-1.18v-3.42h-0.73v-0.77H388v-1.47l1-.6v2.07h1v0.77h-1v3.48a1.68,1.68,0,0,0,.05.55,0.42,0.42,0,0,0,.16.19,0.71,0.71,0,0,0,.34.07Zm3.54,0.89,3.15-8.19h1.15l3.35,8.19H400L399,325h-3.42l-0.91,2.47h-1.14Zm2.36-3.37h2.78l-0.87-2.27q-0.38-1-.58-1.69a10,10,0,0,1-.44,1.57Zm10.08,1.2,1,0.12a2.51,2.51,0,0,1-.82,1.61,2.43,2.43,0,0,1-1.63.58,2.56,2.56,0,0,1-2-.8,3.26,3.26,0,0,1-.73-2.28,4.12,4.12,0,0,1,.32-1.68,2.19,2.19,0,0,1,1-1.09,2.87,2.87,0,0,1,1.42-.36,2.45,2.45,0,0,1,1.58.49,2.16,2.16,0,0,1,.78,1.37l-1,.15a1.6,1.6,0,0,0-.49-0.89,1.24,1.24,0,0,0-.85-0.3,1.57,1.57,0,0,0-1.24.55,2.58,2.58,0,0,0-.47,1.72,2.73,2.73,0,0,0,.45,1.74,1.49,1.49,0,0,0,1.2.54,1.43,1.43,0,0,0,1-.36A1.79,1.79,0,0,0,406,325.33Zm5.86,0,1,0.12a2.51,2.51,0,0,1-.82,1.61,2.43,2.43,0,0,1-1.63.58,2.56,2.56,0,0,1-2-.8,3.26,3.26,0,0,1-.73-2.28,4.12,4.12,0,0,1,.32-1.68,2.19,2.19,0,0,1,1-1.09,2.87,2.87,0,0,1,1.42-.36,2.45,2.45,0,0,1,1.58.49,2.16,2.16,0,0,1,.78,1.37l-1,.15a1.6,1.6,0,0,0-.49-0.89,1.24,1.24,0,0,0-.85-0.3,1.57,1.57,0,0,0-1.24.55,2.58,2.58,0,0,0-.47,1.72,2.73,2.73,0,0,0,.45,1.74,1.49,1.49,0,0,0,1.2.54,1.43,1.43,0,0,0,1-.36A1.79,1.79,0,0,0,411.88,325.33Zm6.05,0.26,1,0.12a2.56,2.56,0,0,1-.92,1.43,3.11,3.11,0,0,1-3.76-.3,3.18,3.18,0,0,1-.76-2.25,3.27,3.27,0,0,1,.77-2.32,2.64,2.64,0,0,1,2-.82,2.5,2.5,0,0,1,1.94.81,3.2,3.2,0,0,1,.76,2.27v0.27h-4.42a2.29,2.29,0,0,0,.55,1.5,1.63,1.63,0,0,0,1.24.52,1.54,1.54,0,0,0,.95-0.29A1.93,1.93,0,0,0,417.94,325.59Zm-3.3-1.62h3.31a2,2,0,0,0-.38-1.13,1.54,1.54,0,0,0-1.24-.58,1.58,1.58,0,0,0-1.17.47A1.83,1.83,0,0,0,414.64,324Zm5.36,1.76,1-.15a1.42,1.42,0,0,0,.47.92,1.64,1.64,0,0,0,1.07.32,1.57,1.57,0,0,0,1-.27,0.86,0.86,0,0,0,.34-0.67,0.6,0.6,0,0,0-.3-0.54,4.19,4.19,0,0,0-1-.34,9,9,0,0,1-1.53-.48,1.52,1.52,0,0,1-.69-2.09,1.54,1.54,0,0,1,.49-0.56,1.84,1.84,0,0,1,.63-0.29,3,3,0,0,1,.88-0.12,3.28,3.28,0,0,1,1.21.21,1.59,1.59,0,0,1,.78.54,2.06,2.06,0,0,1,.36.92l-1,.14a1.06,1.06,0,0,0-.38-0.71,1.39,1.39,0,0,0-.91-0.26,1.64,1.64,0,0,0-1,.23,0.65,0.65,0,0,0-.3.54,0.53,0.53,0,0,0,.12.34,0.91,0.91,0,0,0,.38.27l0.89,0.25a12.41,12.41,0,0,1,1.48.47,1.46,1.46,0,0,1,.91,1.39,1.64,1.64,0,0,1-.3.95,1.91,1.91,0,0,1-.84.69,3,3,0,0,1-1.25.25,2.77,2.77,0,0,1-1.76-.48A2.23,2.23,0,0,1,420,325.73Zm5.86,0,1-.15a1.42,1.42,0,0,0,.47.92,1.64,1.64,0,0,0,1.07.32,1.57,1.57,0,0,0,1-.27,0.86,0.86,0,0,0,.34-0.67,0.6,0.6,0,0,0-.3-0.54,4.19,4.19,0,0,0-1-.34,9,9,0,0,1-1.53-.48,1.52,1.52,0,0,1-.69-2.09,1.54,1.54,0,0,1,.49-0.56,1.84,1.84,0,0,1,.63-0.29,3,3,0,0,1,.88-0.12,3.28,3.28,0,0,1,1.21.21,1.59,1.59,0,0,1,.78.54,2.06,2.06,0,0,1,.36.92l-1,.14a1.06,1.06,0,0,0-.38-0.71,1.39,1.39,0,0,0-.91-0.26,1.64,1.64,0,0,0-1,.23,0.65,0.65,0,0,0-.3.54,0.53,0.53,0,0,0,.12.34,0.91,0.91,0,0,0,.38.27l0.89,0.25a12.41,12.41,0,0,1,1.48.47,1.46,1.46,0,0,1,.91,1.39,1.64,1.64,0,0,1-.3.95,1.91,1.91,0,0,1-.84.69,3,3,0,0,1-1.25.25,2.77,2.77,0,0,1-1.76-.48A2.23,2.23,0,0,1,425.86,325.73Z"/>
  <path class="cls-1" d="M447.6,313.29h20v20h-20v-20Z"/>
  <path class="cls-2" d="M447.6,313.29h20v20h-20v-20Z"/>
  <path class="cls-12" d="M469.82,308.34H628.67v29.91H469.82V308.34Z"/>
  <path d="M478.6,327.5v-8.19h1.11l4.3,6.43v-6.43h1v8.19h-1.11l-4.3-6.43v6.43h-1Zm8-3a3,3,0,0,1,.91-2.43,2.77,2.77,0,0,1,1.87-.66,2.65,2.65,0,0,1,2,.8,3,3,0,0,1,.78,2.21,3.93,3.93,0,0,1-.34,1.8,2.47,2.47,0,0,1-1,1,3,3,0,0,1-1.43.36,2.68,2.68,0,0,1-2-.8A3.23,3.23,0,0,1,486.58,324.54Zm1,0a2.58,2.58,0,0,0,.49,1.72,1.65,1.65,0,0,0,2.49,0,2.58,2.58,0,0,0,.51-1.74,2.41,2.41,0,0,0-.51-1.66,1.56,1.56,0,0,0-1.24-.58,1.59,1.59,0,0,0-1.25.56A2.52,2.52,0,0,0,487.61,324.54Zm8.69,0.65,1-.14a2.21,2.21,0,0,0,.34,1.29,1.14,1.14,0,0,0,.88.34,1.28,1.28,0,0,0,.69-0.18,1,1,0,0,0,.41-0.51,3.15,3.15,0,0,0,.12-1v-5.65h1.07v5.58a4.09,4.09,0,0,1-.25,1.59,1.8,1.8,0,0,1-.78.87,2.63,2.63,0,0,1-1.26.29,2.14,2.14,0,0,1-1.65-.62A2.52,2.52,0,0,1,496.3,325.18Zm10.15,1.59a3.89,3.89,0,0,1-1.07.67,3.08,3.08,0,0,1-1.1.19,2.15,2.15,0,0,1-1.51-.48,1.59,1.59,0,0,1-.52-1.22,1.62,1.62,0,0,1,.19-0.78,1.72,1.72,0,0,1,.52-0.59,2.5,2.5,0,0,1,.73-0.33q0.29-.07.89-0.15a8.63,8.63,0,0,0,1.79-.34q0-.21,0-0.26a1.09,1.09,0,0,0-.29-0.87,1.66,1.66,0,0,0-1.14-.34,1.82,1.82,0,0,0-1.06.25,1.55,1.55,0,0,0-.49.88l-1-.12a2.35,2.35,0,0,1,.43-1,1.94,1.94,0,0,1,.89-0.6,4.08,4.08,0,0,1,1.35-.21,3.53,3.53,0,0,1,1.24.18,1.43,1.43,0,0,1,1,1.13,7,7,0,0,1,0,.93V325a13.29,13.29,0,0,0,.07,1.77,2.55,2.55,0,0,0,.25.71h-1A2.42,2.42,0,0,1,506.44,326.78Zm-0.08-2.25a6.82,6.82,0,0,1-1.63.38,4.15,4.15,0,0,0-.88.21,0.84,0.84,0,0,0-.4.33,0.82,0.82,0,0,0-.14.47,0.87,0.87,0,0,0,.3.67,1.33,1.33,0,0,0,.89.26,2.12,2.12,0,0,0,1-.25,1.65,1.65,0,0,0,.67-0.7,2.53,2.53,0,0,0,.15-1v-0.37Zm4.39,3-2.25-5.92h1.06l1.26,3.54q0.21,0.58.38,1.2,0.14-.47.37-1.13l1.32-3.61h1l-2.24,5.92h-0.93Zm8.07-.73a3.89,3.89,0,0,1-1.07.67,3.08,3.08,0,0,1-1.1.19,2.15,2.15,0,0,1-1.51-.48,1.59,1.59,0,0,1-.52-1.22,1.63,1.63,0,0,1,.19-0.78,1.73,1.73,0,0,1,.52-0.59,2.5,2.5,0,0,1,.73-0.33q0.29-.07.89-0.15a8.63,8.63,0,0,0,1.79-.34q0-.21,0-0.26a1.09,1.09,0,0,0-.29-0.87,1.66,1.66,0,0,0-1.14-.34,1.82,1.82,0,0,0-1.06.25,1.55,1.55,0,0,0-.49.88l-1-.12a2.36,2.36,0,0,1,.43-1,1.94,1.94,0,0,1,.89-0.6,4.08,4.08,0,0,1,1.35-.21,3.53,3.53,0,0,1,1.24.18,1.43,1.43,0,0,1,1,1.13,7,7,0,0,1,0,.93V325a13.3,13.3,0,0,0,.07,1.77,2.55,2.55,0,0,0,.25.71h-1A2.42,2.42,0,0,1,518.82,326.78Zm-0.08-2.25a6.82,6.82,0,0,1-1.63.38,4.15,4.15,0,0,0-.88.21,0.84,0.84,0,0,0-.4.33,0.82,0.82,0,0,0-.14.47,0.88,0.88,0,0,0,.3.67,1.33,1.33,0,0,0,.89.26,2.12,2.12,0,0,0,1-.25,1.65,1.65,0,0,0,.67-0.7,2.53,2.53,0,0,0,.15-1v-0.37Zm2.49,0.36,1-.1a2.3,2.3,0,0,0,.33,1,2,2,0,0,0,.82.63,3.27,3.27,0,0,0,1.26.23,3,3,0,0,0,1.09-.18,1.51,1.51,0,0,0,.71-0.49,1.21,1.21,0,0,0,.23-0.71,1,1,0,0,0-.23-0.67,1.6,1.6,0,0,0-.73-0.48q-0.33-.12-1.46-0.4a8,8,0,0,1-1.58-.51,2.19,2.19,0,0,1-.88-0.76,1.92,1.92,0,0,1-.29-1,2.1,2.1,0,0,1,.34-1.15,2.19,2.19,0,0,1,1-.81,3.86,3.86,0,0,1,1.51-.29,3.93,3.93,0,0,1,1.59.3,2.25,2.25,0,0,1,1.07.87,2.38,2.38,0,0,1,.41,1.28l-1,.08a1.64,1.64,0,0,0-.56-1.17,2.2,2.2,0,0,0-1.43-.4,2.31,2.31,0,0,0-1.43.36,1.07,1.07,0,0,0-.45.87,0.94,0.94,0,0,0,.32.73,4.31,4.31,0,0,0,1.63.59,10.84,10.84,0,0,1,1.81.51,2.39,2.39,0,0,1,1,.84,2,2,0,0,1,.34,1.17,2.22,2.22,0,0,1-.37,1.22,2.5,2.5,0,0,1-1.07.91,3.8,3.8,0,0,1-1.58.32,4.86,4.86,0,0,1-1.87-.32,2.66,2.66,0,0,1-1.17-1A2.84,2.84,0,0,1,521.23,324.88Zm11.92,0.45,1,0.12a2.51,2.51,0,0,1-.82,1.61,2.43,2.43,0,0,1-1.63.58,2.56,2.56,0,0,1-2-.8,3.26,3.26,0,0,1-.73-2.28,4.12,4.12,0,0,1,.32-1.68,2.19,2.19,0,0,1,1-1.09,2.87,2.87,0,0,1,1.42-.36,2.45,2.45,0,0,1,1.58.49,2.16,2.16,0,0,1,.78,1.37l-1,.15a1.6,1.6,0,0,0-.49-0.89,1.24,1.24,0,0,0-.85-0.3,1.57,1.57,0,0,0-1.24.55,2.58,2.58,0,0,0-.47,1.72,2.73,2.73,0,0,0,.45,1.74,1.49,1.49,0,0,0,1.2.54,1.43,1.43,0,0,0,1-.36A1.79,1.79,0,0,0,533.16,325.33Zm2,2.17v-5.92H536v0.89a2.36,2.36,0,0,1,.63-0.82,1.13,1.13,0,0,1,.65-0.21,2,2,0,0,1,1,.32l-0.34.93a1.42,1.42,0,0,0-.73-0.22,1,1,0,0,0-.6.21,1,1,0,0,0-.37.55,4,4,0,0,0-.16,1.17v3.11h-1Zm3.92-7v-1.17h1v1.17h-1Zm0,7v-5.92h1v5.92h-1Zm2.6,2.27v-8.19h0.91v0.77a2.28,2.28,0,0,1,.73-0.67,2,2,0,0,1,1-.23,2.29,2.29,0,0,1,1.33.4,2.32,2.32,0,0,1,.87,1.1,3.88,3.88,0,0,1,.3,1.55,3.92,3.92,0,0,1-.33,1.63,2.46,2.46,0,0,1-2.25,1.51,1.91,1.91,0,0,1-.89-0.21,2.16,2.16,0,0,1-.66-0.55v2.89h-1Zm0.91-5.19a2.57,2.57,0,0,0,.47,1.69,1.42,1.42,0,0,0,1.11.55,1.47,1.47,0,0,0,1.15-.56,2.7,2.7,0,0,0,.48-1.76,2.63,2.63,0,0,0-.47-1.7,1.4,1.4,0,0,0-1.11-.56,1.45,1.45,0,0,0-1.14.6A2.66,2.66,0,0,0,542.57,324.58Zm7.81,2,0.14,0.88a3.48,3.48,0,0,1-.76.1,1.68,1.68,0,0,1-.85-0.18,1,1,0,0,1-.43-0.45,3.59,3.59,0,0,1-.12-1.18v-3.42h-0.73v-0.77h0.73v-1.47l1-.6v2.07h1v0.77h-1v3.48a1.68,1.68,0,0,0,.05.55,0.42,0.42,0,0,0,.16.19,0.71,0.71,0,0,0,.34.07Zm3.54,0.89,3.15-8.19h1.15l3.35,8.19h-1.24L559.39,325H556l-0.91,2.47h-1.14Zm2.36-3.37h2.78l-0.87-2.27q-0.38-1-.58-1.69a10,10,0,0,1-.44,1.57Zm10.08,1.2,1,0.12a2.51,2.51,0,0,1-.82,1.61,2.43,2.43,0,0,1-1.63.58,2.56,2.56,0,0,1-2-.8,3.26,3.26,0,0,1-.73-2.28,4.12,4.12,0,0,1,.32-1.68,2.19,2.19,0,0,1,1-1.09,2.87,2.87,0,0,1,1.42-.36,2.45,2.45,0,0,1,1.58.49,2.16,2.16,0,0,1,.78,1.37l-1,.15a1.6,1.6,0,0,0-.49-0.89,1.24,1.24,0,0,0-.85-0.3,1.57,1.57,0,0,0-1.24.55,2.58,2.58,0,0,0-.47,1.72,2.73,2.73,0,0,0,.45,1.74,1.49,1.49,0,0,0,1.2.54,1.43,1.43,0,0,0,1-.36A1.79,1.79,0,0,0,566.37,325.33Zm5.86,0,1,0.12a2.51,2.51,0,0,1-.82,1.61,2.43,2.43,0,0,1-1.63.58,2.56,2.56,0,0,1-2-.8,3.26,3.26,0,0,1-.73-2.28,4.12,4.12,0,0,1,.32-1.68,2.19,2.19,0,0,1,1-1.09,2.87,2.87,0,0,1,1.42-.36,2.45,2.45,0,0,1,1.58.49,2.16,2.16,0,0,1,.78,1.37l-1,.15a1.6,1.6,0,0,0-.49-0.89,1.24,1.24,0,0,0-.85-0.3,1.57,1.57,0,0,0-1.24.55,2.58,2.58,0,0,0-.47,1.72,2.73,2.73,0,0,0,.45,1.74,1.49,1.49,0,0,0,1.2.54,1.43,1.43,0,0,0,1-.36A1.79,1.79,0,0,0,572.23,325.33Zm6.05,0.26,1,0.12a2.56,2.56,0,0,1-.92,1.43,3.11,3.11,0,0,1-3.76-.3,3.18,3.18,0,0,1-.76-2.25,3.27,3.27,0,0,1,.77-2.32,2.64,2.64,0,0,1,2-.82,2.5,2.5,0,0,1,1.94.81,3.2,3.2,0,0,1,.76,2.27v0.27h-4.42a2.29,2.29,0,0,0,.55,1.5,1.63,1.63,0,0,0,1.24.52,1.54,1.54,0,0,0,.95-0.29A1.93,1.93,0,0,0,578.28,325.59ZM575,324h3.31a2,2,0,0,0-.38-1.13,1.54,1.54,0,0,0-1.24-.58,1.58,1.58,0,0,0-1.17.47A1.83,1.83,0,0,0,575,324Zm5.36,1.76,1-.15a1.42,1.42,0,0,0,.47.92,1.64,1.64,0,0,0,1.07.32,1.57,1.57,0,0,0,1-.27,0.86,0.86,0,0,0,.34-0.67,0.6,0.6,0,0,0-.3-0.54,4.19,4.19,0,0,0-1-.34,9,9,0,0,1-1.53-.48,1.52,1.52,0,0,1-.69-2.09,1.54,1.54,0,0,1,.49-0.56,1.84,1.84,0,0,1,.63-0.29,3,3,0,0,1,.88-0.12,3.28,3.28,0,0,1,1.21.21,1.59,1.59,0,0,1,.78.54,2.06,2.06,0,0,1,.36.92l-1,.14a1.06,1.06,0,0,0-.38-0.71,1.39,1.39,0,0,0-.91-0.26,1.64,1.64,0,0,0-1,.23,0.65,0.65,0,0,0-.3.54,0.53,0.53,0,0,0,.12.34,0.91,0.91,0,0,0,.38.27l0.89,0.25a12.41,12.41,0,0,1,1.48.47,1.46,1.46,0,0,1,.91,1.39,1.64,1.64,0,0,1-.3.95,1.91,1.91,0,0,1-.84.69,3,3,0,0,1-1.25.25,2.77,2.77,0,0,1-1.76-.48A2.23,2.23,0,0,1,580.35,325.73Zm5.86,0,1-.15a1.42,1.42,0,0,0,.47.92,1.64,1.64,0,0,0,1.07.32,1.57,1.57,0,0,0,1-.27,0.86,0.86,0,0,0,.34-0.67,0.6,0.6,0,0,0-.3-0.54,4.19,4.19,0,0,0-1-.34,9,9,0,0,1-1.53-.48,1.52,1.52,0,0,1-.69-2.09,1.54,1.54,0,0,1,.49-0.56,1.84,1.84,0,0,1,.63-0.29,3,3,0,0,1,.88-0.12,3.28,3.28,0,0,1,1.21.21,1.59,1.59,0,0,1,.78.54,2.06,2.06,0,0,1,.36.92l-1,.14a1.06,1.06,0,0,0-.38-0.71,1.39,1.39,0,0,0-.91-0.26,1.64,1.64,0,0,0-1,.23,0.65,0.65,0,0,0-.3.54,0.53,0.53,0,0,0,.12.34,0.91,0.91,0,0,0,.38.27l0.89,0.25a12.41,12.41,0,0,1,1.48.47,1.46,1.46,0,0,1,.91,1.39,1.64,1.64,0,0,1-.3.95,1.91,1.91,0,0,1-.84.69,3,3,0,0,1-1.25.25,2.77,2.77,0,0,1-1.76-.48A2.23,2.23,0,0,1,586.21,325.73Z"/>
  <path class="cls-12" d="M135.72,64.48H55.82V175.23"/>
  <path class="cls-9" d="M135.72,64.48H55.82V170"/>
  <path class="cls-7" d="M54.37,170l1.45,4,1.45-4h-2.9Z"/>
</svg>
